<?xml version="1.0" encoding="UTF-8" standalone="no"?>
<!-- Created with Inkscape (http://www.inkscape.org/) -->

<svg
   version="1.1"
   id="svg132"
   width="862.48816"
   height="1289.9528"
   viewBox="0 0 862.48816 1289.9528"
   sodipodi:docname="Box-Zeichnung Die.svg"
   inkscape:version="1.2.1 (9c6d41e410, 2022-07-14)"
   xmlns:inkscape="http://www.inkscape.org/namespaces/inkscape"
   xmlns:sodipodi="http://sodipodi.sourceforge.net/DTD/sodipodi-0.dtd"
   xmlns="http://www.w3.org/2000/svg"
   xmlns:svg="http://www.w3.org/2000/svg">
  <defs
     id="defs136" />
  <sodipodi:namedview
     id="namedview134"
     pagecolor="#ffffff"
     bordercolor="#000000"
     borderopacity="0.25"
     inkscape:showpageshadow="2"
     inkscape:pageopacity="0.0"
     inkscape:pagecheckerboard="0"
     inkscape:deskcolor="#d1d1d1"
     showgrid="false"
     inkscape:zoom="0.60079721"
     inkscape:cx="431.09388"
     inkscape:cy="644.97636"
     inkscape:window-width="1920"
     inkscape:window-height="991"
     inkscape:window-x="2091"
     inkscape:window-y="-9"
     inkscape:window-maximized="1"
     inkscape:current-layer="g140">
    <inkscape:page
       x="0"
       y="0"
       id="page138"
       width="862.48816"
       height="1289.9528" />
  </sodipodi:namedview>
  <g
     id="g140"
     inkscape:groupmode="layer"
     inkscape:label="Page 1"
     transform="matrix(1.3333333,0,0,1.3333333,0,2.2915484e-5)">
    <g
       id="g142">
      <g
         id="g144">
        <path
           d="m 29.48,910.773 h 283.465 v 28.344 H 29.48 Z"
           style="fill:none;stroke:#000000;stroke-width:0.566929;stroke-linecap:round;stroke-linejoin:round;stroke-miterlimit:4;stroke-dasharray:none;stroke-opacity:1"
           id="path146" />
      </g>
      <text
         xml:space="preserve"
         transform="translate(40.209892,927.88984)"
         style="font-variant:normal;font-weight:normal;font-size:22.6772px;font-family:Verdana;-inkscape-font-specification:Verdana;writing-mode:lr-tb;fill:#ff0000;fill-opacity:1;fill-rule:nonzero;stroke:none"
         id="text150"><tspan
           x="0 14.41683 28.83366 43.250492 65.307579 87.364662 95.613922 103.58636 117.7153 132.0657 141.74335 156.09375 166.39148 180.80832 189.05757 203.47441 217.89124 239.94832"
           y="0"
           sodipodi:role="line"
           id="tspan148">100mm, burn:0.10mm</tspan></text>
      <g
         id="g152">
        <path
           d="m 196.723,757.078 c 0,14.09 -11.422,25.512 -25.512,25.512 -14.09,0 -25.512,-11.422 -25.512,-25.512 0,-14.09 11.422,-25.512 25.512,-25.512 14.09,0 25.512,11.422 25.512,25.512 z"
           style="fill:#000000;fill-opacity:1;fill-rule:nonzero;stroke:#000000;stroke-width:0.04;stroke-linecap:round;stroke-linejoin:round;stroke-miterlimit:4;stroke-dasharray:none;stroke-opacity:1"
           id="path154" />
      </g>
      <text
         xml:space="preserve"
         transform="translate(148.52011,671.19294)"
         style="font-variant:normal;font-weight:normal;font-size:11.3386px;font-family:Verdana;-inkscape-font-specification:Verdana;writing-mode:lr-tb;fill:#ff0000;fill-opacity:1;fill-rule:nonzero;stroke:none"
         id="text158"><tspan
           x="0 10.655655 17.465448 20.576916 23.688381 27.674603"
           y="0"
           sodipodi:role="line"
           id="tspan156">Wall 1</tspan></text>
      <g
         id="g160">
        <path
           d="m 37.984,897.449 h 22.395 c 0.281,0 0,-0.285 0,0 v 8.219 c 0,0.156 0.125,0.285 0.281,0.285 h 17.008 c 0.156,0 0.285,-0.129 0.285,-0.285 v -8.219 c 0,-0.285 -0.285,0 0,0 h 16.442 c 0.281,0 0,-0.285 0,0 v 8.219 c 0,0.156 0.125,0.285 0.281,0.285 h 17.008 c 0.156,0 0.285,-0.129 0.285,-0.285 v -8.219 c 0,-0.285 -0.285,0 0,0 h 16.441 c 0.281,0 0,-0.285 0,0 v 8.219 c 0,0.156 0.125,0.285 0.281,0.285 h 17.008 c 0.156,0 0.285,-0.129 0.285,-0.285 v -8.219 c 0,-0.285 -0.285,0 0,0 h 16.442 c 0.281,0 0,-0.285 0,0 v 8.219 c 0,0.156 0.129,0.285 0.281,0.285 h 17.008 c 0.156,0 0.285,-0.129 0.285,-0.285 v -8.219 c 0,-0.285 -0.285,0 0,0 h 16.441 c 0.282,0 0,-0.285 0,0 v 8.219 c 0,0.156 0.129,0.285 0.282,0.285 h 17.007 c 0.157,0 0.286,-0.129 0.286,-0.285 v -8.219 c 0,-0.285 -0.286,0 0,0 h 16.441 c 0.281,0 0,-0.285 0,0 v 8.219 c 0,0.156 0.129,0.285 0.281,0.285 h 17.008 c 0.156,0 0.285,-0.129 0.285,-0.285 v -8.219 c 0,-0.285 -0.285,0 0,0 h 16.442 c 0.285,0 0,-0.285 0,0 v 8.219 c 0,0.156 0.129,0.285 0.285,0.285 h 17.008 c 0.152,0 0.281,-0.129 0.281,-0.285 v -8.219 c 0,-0.285 -0.281,0 0,0 h 30.898 c 0.157,0 0.282,-0.129 0.282,-0.285 v -22.676 c 0,-0.156 -0.125,-0.285 -0.282,-0.285 h -8.222 c -0.282,0 0,0.285 0,0 v -16.437 c 0,-0.286 -0.282,0 0,0 h 8.222 c 0.157,0 0.282,-0.129 0.282,-0.286 v -17.007 c 0,-0.157 -0.125,-0.285 -0.282,-0.285 h -8.222 c -0.282,0 0,0.285 0,0 v -16.442 c 0,-0.281 -0.282,0 0,0 h 8.222 c 0.157,0 0.282,-0.125 0.282,-0.281 v -17.008 c 0,-0.156 -0.125,-0.285 -0.282,-0.285 h -8.222 c -0.282,0 0,0.285 0,0 V 789.73 c 0,-0.281 -0.282,0 0,0 h 8.222 c 0.157,0 0.282,-0.125 0.282,-0.281 v -17.008 c 0,-0.156 -0.125,-0.285 -0.282,-0.285 h -8.222 c -0.282,0 0,0.285 0,0 v -16.441 c 0,-0.281 -0.282,0 0,0 h 8.222 c 0.157,0 0.282,-0.125 0.282,-0.281 v -17.008 c 0,-0.156 -0.125,-0.285 -0.282,-0.285 h -8.222 c -0.282,0 0,0.285 0,0 v -16.442 c 0,-0.281 -0.282,0 0,0 h 8.222 c 0.157,0 0.282,-0.125 0.282,-0.281 V 704.41 c 0,-0.156 -0.125,-0.285 -0.282,-0.285 h -8.222 c -0.282,0 0,0.285 0,0 v -16.441 c 0,-0.282 -0.282,0 0,0 h 8.222 c 0.157,0 0.282,-0.125 0.282,-0.282 v -17.007 c 0,-0.157 -0.125,-0.286 -0.282,-0.286 h -8.222 c -0.282,0 0,0.286 0,0 v -16.441 c 0,-0.281 -0.282,0 0,0 h 8.222 c 0.157,0 0.282,-0.125 0.282,-0.281 v -31.184 c 0,-0.156 -0.125,-0.281 -0.282,-0.281 h -31.179 c -0.157,0 -0.286,0.125 -0.286,0.281 v 8.223 c 0,0.281 0.286,0 0,0 h -16.441 c -0.281,0 0,0.281 0,0 v -8.223 c 0,-0.156 -0.129,-0.281 -0.281,-0.281 h -17.012 c -0.152,0 -0.281,0.125 -0.281,0.281 v 8.223 c 0,0.281 0.281,0 0,0 h -16.442 c -0.285,0 0,0.281 0,0 v -8.223 c 0,-0.156 -0.128,-0.281 -0.285,-0.281 H 213.73 c -0.152,0 -0.281,0.125 -0.281,0.281 v 8.223 c 0,0.281 0.281,0 0,0 h -16.441 c -0.285,0 0,0.281 0,0 v -8.223 c 0,-0.156 -0.129,-0.281 -0.285,-0.281 h -17.008 c -0.152,0 -0.281,0.125 -0.281,0.281 v 8.223 c 0,0.281 0.281,0 0,0 h -16.442 c -0.285,0 0,0.281 0,0 v -8.223 c 0,-0.156 -0.129,-0.281 -0.285,-0.281 h -17.008 c -0.156,0 -0.281,0.125 -0.281,0.281 v 8.223 c 0,0.281 0.281,0 0,0 h -16.441 c -0.286,0 0,0.281 0,0 v -8.223 c 0,-0.156 -0.129,-0.281 -0.286,-0.281 h -17.007 c -0.157,0 -0.282,0.125 -0.282,0.281 v 8.223 c 0,0.281 0.282,0 0,0 H 94.961 c -0.285,0 0,0.281 0,0 v -8.223 c 0,-0.156 -0.129,-0.281 -0.285,-0.281 H 77.668 c -0.156,0 -0.281,0.125 -0.281,0.281 v 8.223 c 0,0.281 0.281,0 0,0 H 60.945 c -0.285,0 0,0.281 0,0 v -8.223 c 0,-0.156 -0.129,-0.281 -0.285,-0.281 H 29.48 c -0.156,0 -0.285,0.125 -0.285,0.281 v 31.184 c 0,0.156 0.129,0.281 0.285,0.281 h 8.219 c 0.285,0 0,-0.281 0,0 v 16.441 c 0,0.286 0.285,0 0,0 H 29.48 c -0.156,0 -0.285,0.129 -0.285,0.286 v 17.007 c 0,0.157 0.129,0.282 0.285,0.282 h 8.219 c 0.285,0 0,-0.282 0,0 v 16.441 c 0,0.285 0.285,0 0,0 H 29.48 c -0.156,0 -0.285,0.129 -0.285,0.285 v 17.008 c 0,0.156 0.129,0.281 0.285,0.281 h 8.219 c 0.285,0 0,-0.281 0,0 v 16.442 c 0,0.285 0.285,0 0,0 H 29.48 c -0.156,0 -0.285,0.129 -0.285,0.285 v 17.008 c 0,0.156 0.129,0.281 0.285,0.281 h 8.219 c 0.285,0 0,-0.281 0,0 v 16.441 c 0,0.285 0.285,0 0,0 H 29.48 c -0.156,0 -0.285,0.129 -0.285,0.285 v 17.008 c 0,0.156 0.129,0.281 0.285,0.281 h 8.219 c 0.285,0 0,-0.281 0,0 v 16.442 c 0,0.285 0.285,0 0,0 H 29.48 c -0.156,0 -0.285,0.129 -0.285,0.285 v 17.008 c 0,0.156 0.129,0.281 0.285,0.281 h 8.219 c 0.285,0 0,-0.281 0,0 v 16.442 c 0,0.285 0.285,0 0,0 H 29.48 c -0.156,0 -0.285,0.128 -0.285,0.285 v 17.007 c 0,0.157 0.129,0.286 0.285,0.286 h 8.219 c 0.285,0 0,-0.286 0,0 v 16.437 c 0,0.285 0.285,0 0,0 H 29.48 c -0.156,0 -0.285,0.129 -0.285,0.285 v 22.676 c 0,0.156 0.129,0.285 0.285,0.285 h 8.504"
           style="fill:none;stroke:#000000;stroke-width:0.566929;stroke-linecap:round;stroke-linejoin:round;stroke-miterlimit:4;stroke-dasharray:none;stroke-opacity:1"
           id="path162" />
      </g>
      <text
         xml:space="preserve"
         transform="translate(442.05358,765.69295)"
         style="font-variant:normal;font-weight:normal;font-size:11.3386px;font-family:Verdana;-inkscape-font-specification:Verdana;writing-mode:lr-tb;fill:#ff0000;fill-opacity:1;fill-rule:nonzero;stroke:none"
         id="text166"><tspan
           x="0 10.655655 17.465448 20.576916 23.688381 27.674603"
           y="0"
           sodipodi:role="line"
           id="tspan164">Wall 2</tspan></text>
      <g
         id="g168">
        <path
           d="m 326.27,897.449 h 22.39 c 0.285,0 0,-0.285 0,0 v 8.219 c 0,0.156 0.129,0.285 0.285,0.285 h 17.008 c 0.156,0 0.281,-0.129 0.281,-0.285 v -8.219 c 0,-0.285 -0.281,0 0,0 h 16.442 c 0.285,0 0,-0.285 0,0 v 8.219 c 0,0.156 0.129,0.285 0.285,0.285 h 17.008 c 0.156,0 0.285,-0.129 0.285,-0.285 v -8.219 c 0,-0.285 -0.285,0 0,0 h 16.437 c 0.286,0 0,-0.285 0,0 v 8.219 c 0,0.156 0.129,0.285 0.286,0.285 h 17.007 c 0.157,0 0.286,-0.129 0.286,-0.285 v -8.219 c 0,-0.285 -0.286,0 0,0 h 16.437 c 0.285,0 0,-0.285 0,0 v 8.219 c 0,0.156 0.129,0.285 0.285,0.285 H 468 c 0.156,0 0.285,-0.129 0.285,-0.285 v -8.219 c 0,-0.285 -0.285,0 0,0 h 16.438 c 0.285,0 0,-0.285 0,0 v 8.219 c 0,0.156 0.129,0.285 0.285,0.285 h 17.008 c 0.156,0 0.285,-0.129 0.285,-0.285 v -8.219 c 0,-0.285 -0.285,0 0,0 h 16.437 c 0.285,0 0,-0.285 0,0 v 8.219 c 0,0.156 0.129,0.285 0.285,0.285 h 17.008 c 0.157,0 0.285,-0.129 0.285,-0.285 v -8.219 c 0,-0.285 -0.285,0 0,0 h 16.442 c 0.281,0 0,-0.285 0,0 v 8.219 c 0,0.156 0.125,0.285 0.281,0.285 h 17.008 c 0.156,0 0.285,-0.129 0.285,-0.285 v -8.219 c 0,-0.285 -0.285,0 0,0 h 22.391 c 0.156,0 0.285,-0.129 0.285,-0.285 v -22.391 c 0,-0.285 -0.285,0 0,0 h 8.219 c 0.156,0 0.285,-0.128 0.285,-0.285 V 857.48 c 0,-0.156 -0.129,-0.285 -0.285,-0.285 h -8.219 c -0.285,0 0,0.285 0,0 v -16.437 c 0,-0.285 -0.285,0 0,0 h 8.219 c 0.156,0 0.285,-0.129 0.285,-0.285 v -17.008 c 0,-0.156 -0.129,-0.285 -0.285,-0.285 h -8.219 c -0.285,0 0,0.285 0,0 v -16.442 c 0,-0.281 -0.285,0 0,0 h 8.219 c 0.156,0 0.285,-0.125 0.285,-0.281 v -17.008 c 0,-0.156 -0.129,-0.285 -0.285,-0.285 h -8.219 c -0.285,0 0,0.285 0,0 v -16.441 c 0,-0.282 -0.285,0 0,0 h 8.219 c 0.156,0 0.285,-0.125 0.285,-0.282 v -17.007 c 0,-0.157 -0.129,-0.286 -0.285,-0.286 h -8.219 c -0.285,0 0,0.286 0,0 v -16.441 c 0,-0.281 -0.285,0 0,0 h 8.219 c 0.156,0 0.285,-0.125 0.285,-0.281 v -17.008 c 0,-0.156 -0.129,-0.285 -0.285,-0.285 h -8.219 c -0.285,0 0,0.285 0,0 v -16.442 c 0,-0.281 -0.285,0 0,0 h 8.219 c 0.156,0 0.285,-0.125 0.285,-0.281 v -17.008 c 0,-0.156 -0.129,-0.285 -0.285,-0.285 h -8.219 c -0.285,0 0,0.285 0,0 v -16.441 c 0,-0.281 -0.285,0 0,0 h 8.219 c 0.156,0 0.285,-0.125 0.285,-0.281 v -17.008 c 0,-0.157 -0.129,-0.285 -0.285,-0.285 h -8.219 c -0.285,0 0,0.285 0,0 v -30.899 c 0,-0.156 -0.129,-0.281 -0.285,-0.281 h -22.676 c -0.156,0 -0.281,0.125 -0.281,0.281 v 8.223 c 0,0.281 0.281,0 0,0 h -16.442 c -0.285,0 0,0.281 0,0 v -8.223 c 0,-0.156 -0.129,-0.281 -0.285,-0.281 h -17.008 c -0.156,0 -0.285,0.125 -0.285,0.281 v 8.223 c 0,0.281 0.285,0 0,0 h -16.437 c -0.286,0 0,0.281 0,0 v -8.223 c 0,-0.156 -0.129,-0.281 -0.286,-0.281 h -17.007 c -0.157,0 -0.286,0.125 -0.286,0.281 v 8.223 c 0,0.281 0.286,0 0,0 h -16.437 c -0.285,0 0,0.281 0,0 v -8.223 c 0,-0.156 -0.129,-0.281 -0.285,-0.281 H 468 c -0.156,0 -0.285,0.125 -0.285,0.281 v 8.223 c 0,0.281 0.285,0 0,0 h -16.438 c -0.285,0 0,0.281 0,0 v -8.223 c 0,-0.156 -0.129,-0.281 -0.285,-0.281 h -17.008 c -0.156,0 -0.285,0.125 -0.285,0.281 v 8.223 c 0,0.281 0.285,0 0,0 h -16.437 c -0.285,0 0,0.281 0,0 v -8.223 c 0,-0.156 -0.129,-0.281 -0.285,-0.281 h -17.008 c -0.156,0 -0.285,0.125 -0.285,0.281 v 8.223 c 0,0.281 0.285,0 0,0 h -16.442 c -0.281,0 0,0.281 0,0 v -8.223 c 0,-0.156 -0.125,-0.281 -0.281,-0.281 h -17.008 c -0.156,0 -0.285,0.125 -0.285,0.281 v 8.223 c 0,0.281 0.285,0 0,0 h -16.441 c -0.282,0 0,0.281 0,0 v -8.223 c 0,-0.156 -0.125,-0.281 -0.282,-0.281 H 326.27 c -0.157,0 -0.286,0.125 -0.286,0.281 v 30.899 c 0,0.285 0.286,0 0,0 h -8.218 c -0.157,0 -0.286,0.128 -0.286,0.285 v 17.008 c 0,0.156 0.129,0.281 0.286,0.281 h 8.218 c 0.286,0 0,-0.281 0,0 v 16.441 c 0,0.285 0.286,0 0,0 h -8.218 c -0.157,0 -0.286,0.129 -0.286,0.285 v 17.008 c 0,0.156 0.129,0.281 0.286,0.281 h 8.218 c 0.286,0 0,-0.281 0,0 v 16.442 c 0,0.285 0.286,0 0,0 h -8.218 c -0.157,0 -0.286,0.129 -0.286,0.285 v 17.008 c 0,0.156 0.129,0.281 0.286,0.281 h 8.218 c 0.286,0 0,-0.281 0,0 v 16.441 c 0,0.286 0.286,0 0,0 h -8.218 c -0.157,0 -0.286,0.129 -0.286,0.286 v 17.007 c 0,0.157 0.129,0.282 0.286,0.282 h 8.218 c 0.286,0 0,-0.282 0,0 v 16.441 c 0,0.285 0.286,0 0,0 h -8.218 c -0.157,0 -0.286,0.129 -0.286,0.285 v 17.008 c 0,0.156 0.129,0.281 0.286,0.281 h 8.218 c 0.286,0 0,-0.281 0,0 v 16.442 c 0,0.285 0.286,0 0,0 h -8.218 c -0.157,0 -0.286,0.129 -0.286,0.285 v 17.008 c 0,0.156 0.129,0.285 0.286,0.285 h 8.218 c 0.286,0 0,-0.285 0,0 v 16.437 c 0,0.285 0.286,0 0,0 h -8.218 c -0.157,0 -0.286,0.129 -0.286,0.285 v 17.008 c 0,0.157 0.129,0.285 0.286,0.285 h 8.218 c 0.286,0 0,-0.285 0,0 v 22.391 c 0,0.156 0.129,0.285 0.286,0.285"
           style="fill:none;stroke:#000000;stroke-width:0.566929;stroke-linecap:round;stroke-linejoin:round;stroke-miterlimit:4;stroke-dasharray:none;stroke-opacity:1"
           id="path170" />
      </g>
      <text
         xml:space="preserve"
         transform="translate(442.05358,477.40949)"
         style="font-variant:normal;font-weight:normal;font-size:11.3386px;font-family:Verdana;-inkscape-font-specification:Verdana;writing-mode:lr-tb;fill:#ff0000;fill-opacity:1;fill-rule:nonzero;stroke:none"
         id="text174"><tspan
           x="0 10.655655 17.465448 20.576916 23.688381 27.674603"
           y="0"
           sodipodi:role="line"
           id="tspan172">Wall 4</tspan></text>
      <g
         id="g176">
        <path
           d="m 326.27,609.164 h 22.39 c 0.285,0 0,-0.281 0,0 v 8.223 c 0,0.156 0.129,0.281 0.285,0.281 h 17.008 c 0.156,0 0.281,-0.125 0.281,-0.281 v -8.223 c 0,-0.281 -0.281,0 0,0 h 16.442 c 0.285,0 0,-0.281 0,0 v 8.223 c 0,0.156 0.129,0.281 0.285,0.281 h 17.008 c 0.156,0 0.285,-0.125 0.285,-0.281 v -8.223 c 0,-0.281 -0.285,0 0,0 h 16.437 c 0.286,0 0,-0.281 0,0 v 8.223 c 0,0.156 0.129,0.281 0.286,0.281 h 17.007 c 0.157,0 0.286,-0.125 0.286,-0.281 v -8.223 c 0,-0.281 -0.286,0 0,0 h 16.437 c 0.285,0 0,-0.281 0,0 v 8.223 c 0,0.156 0.129,0.281 0.285,0.281 H 468 c 0.156,0 0.285,-0.125 0.285,-0.281 v -8.223 c 0,-0.281 -0.285,0 0,0 h 16.438 c 0.285,0 0,-0.281 0,0 v 8.223 c 0,0.156 0.129,0.281 0.285,0.281 h 17.008 c 0.156,0 0.285,-0.125 0.285,-0.281 v -8.223 c 0,-0.281 -0.285,0 0,0 h 16.437 c 0.285,0 0,-0.281 0,0 v 8.223 c 0,0.156 0.129,0.281 0.285,0.281 h 17.008 c 0.157,0 0.285,-0.125 0.285,-0.281 v -8.223 c 0,-0.281 -0.285,0 0,0 h 16.442 c 0.281,0 0,-0.281 0,0 v 8.223 c 0,0.156 0.125,0.281 0.281,0.281 h 17.008 c 0.156,0 0.285,-0.125 0.285,-0.281 v -8.223 c 0,-0.281 -0.285,0 0,0 h 22.391 c 0.156,0 0.285,-0.125 0.285,-0.281 v -22.395 c 0,-0.285 -0.285,0 0,0 h 8.219 c 0.156,0 0.285,-0.129 0.285,-0.285 v -17.008 c 0,-0.156 -0.129,-0.281 -0.285,-0.281 h -8.219 c -0.285,0 0,0.281 0,0 v -16.441 c 0,-0.285 -0.285,0 0,0 h 8.219 c 0.156,0 0.285,-0.129 0.285,-0.285 V 535.18 c 0,-0.157 -0.129,-0.282 -0.285,-0.282 h -8.219 c -0.285,0 0,0.282 0,0 v -16.441 c 0,-0.285 -0.285,0 0,0 h 8.219 c 0.156,0 0.285,-0.129 0.285,-0.285 v -17.008 c 0,-0.156 -0.129,-0.281 -0.285,-0.281 h -8.219 c -0.285,0 0,0.281 0,0 v -16.442 c 0,-0.285 -0.285,0 0,0 h 8.219 c 0.156,0 0.285,-0.128 0.285,-0.285 v -17.008 c 0,-0.156 -0.129,-0.281 -0.285,-0.281 h -8.219 c -0.285,0 0,0.281 0,0 v -16.441 c 0,-0.285 -0.285,0 0,0 h 8.219 c 0.156,0 0.285,-0.129 0.285,-0.285 v -17.008 c 0,-0.156 -0.129,-0.281 -0.285,-0.281 h -8.219 c -0.285,0 0,0.281 0,0 V 416.41 c 0,-0.285 -0.285,0 0,0 h 8.219 c 0.156,0 0.285,-0.129 0.285,-0.285 v -17.008 c 0,-0.156 -0.129,-0.281 -0.285,-0.281 h -8.219 c -0.285,0 0,0.281 0,0 v -16.441 c 0,-0.286 -0.285,0 0,0 h 8.219 c 0.156,0 0.285,-0.129 0.285,-0.286 v -17.007 c 0,-0.157 -0.129,-0.282 -0.285,-0.282 h -8.219 c -0.285,0 0,0.282 0,0 v -30.898 c 0,-0.156 -0.129,-0.285 -0.285,-0.285 h -22.676 c -0.156,0 -0.281,0.129 -0.281,0.285 v 8.219 c 0,0.285 0.281,0 0,0 h -16.442 c -0.285,0 0,0.285 0,0 v -8.219 c 0,-0.156 -0.129,-0.285 -0.285,-0.285 h -17.008 c -0.156,0 -0.285,0.129 -0.285,0.285 v 8.219 c 0,0.285 0.285,0 0,0 h -16.437 c -0.286,0 0,0.285 0,0 v -8.219 c 0,-0.156 -0.129,-0.285 -0.286,-0.285 h -17.007 c -0.157,0 -0.286,0.129 -0.286,0.285 v 8.219 c 0,0.285 0.286,0 0,0 h -16.437 c -0.285,0 0,0.285 0,0 v -8.219 c 0,-0.156 -0.129,-0.285 -0.285,-0.285 H 468 c -0.156,0 -0.285,0.129 -0.285,0.285 v 8.219 c 0,0.285 0.285,0 0,0 h -16.438 c -0.285,0 0,0.285 0,0 v -8.219 c 0,-0.156 -0.129,-0.285 -0.285,-0.285 h -17.008 c -0.156,0 -0.285,0.129 -0.285,0.285 v 8.219 c 0,0.285 0.285,0 0,0 h -16.437 c -0.285,0 0,0.285 0,0 v -8.219 c 0,-0.156 -0.129,-0.285 -0.285,-0.285 h -17.008 c -0.156,0 -0.285,0.129 -0.285,0.285 v 8.219 c 0,0.285 0.285,0 0,0 h -16.442 c -0.281,0 0,0.285 0,0 v -8.219 c 0,-0.156 -0.125,-0.285 -0.281,-0.285 h -17.008 c -0.156,0 -0.285,0.129 -0.285,0.285 v 8.219 c 0,0.285 0.285,0 0,0 h -16.441 c -0.282,0 0,0.285 0,0 v -8.219 c 0,-0.156 -0.125,-0.285 -0.282,-0.285 H 326.27 c -0.157,0 -0.286,0.129 -0.286,0.285 v 30.898 c 0,0.282 0.286,0 0,0 h -8.218 c -0.157,0 -0.286,0.125 -0.286,0.282 v 17.007 c 0,0.157 0.129,0.286 0.286,0.286 h 8.218 c 0.286,0 0,-0.286 0,0 v 16.441 c 0,0.281 0.286,0 0,0 h -8.218 c -0.157,0 -0.286,0.125 -0.286,0.281 v 17.008 c 0,0.156 0.129,0.285 0.286,0.285 h 8.218 c 0.286,0 0,-0.285 0,0 v 16.442 c 0,0.281 0.286,0 0,0 h -8.218 c -0.157,0 -0.286,0.125 -0.286,0.281 v 17.008 c 0,0.156 0.129,0.285 0.286,0.285 h 8.218 c 0.286,0 0,-0.285 0,0 v 16.441 c 0,0.281 0.286,0 0,0 h -8.218 c -0.157,0 -0.286,0.125 -0.286,0.281 v 17.008 c 0,0.157 0.129,0.285 0.286,0.285 h 8.218 c 0.286,0 0,-0.285 0,0 v 16.442 c 0,0.281 0.286,0 0,0 h -8.218 c -0.157,0 -0.286,0.125 -0.286,0.281 v 17.008 c 0,0.156 0.129,0.285 0.286,0.285 h 8.218 c 0.286,0 0,-0.285 0,0 v 16.441 c 0,0.282 0.286,0 0,0 h -8.218 c -0.157,0 -0.286,0.125 -0.286,0.282 v 17.008 c 0,0.156 0.129,0.285 0.286,0.285 h 8.218 c 0.286,0 0,-0.285 0,0 v 16.441 c 0,0.281 0.286,0 0,0 h -8.218 c -0.157,0 -0.286,0.125 -0.286,0.281 v 17.008 c 0,0.156 0.129,0.285 0.286,0.285 h 8.218 c 0.286,0 0,-0.285 0,0 v 22.395 c 0,0.156 0.129,0.281 0.286,0.281"
           style="fill:none;stroke:#000000;stroke-width:0.566929;stroke-linecap:round;stroke-linejoin:round;stroke-miterlimit:4;stroke-dasharray:none;stroke-opacity:1"
           id="path178" />
      </g>
      <text
         xml:space="preserve"
         transform="translate(153.94175,387.40947)"
         style="font-variant:normal;font-weight:normal;font-size:11.3386px;font-family:Verdana;-inkscape-font-specification:Verdana;writing-mode:lr-tb;fill:#ff0000;fill-opacity:1;fill-rule:nonzero;stroke:none"
         id="text182"><tspan
           x="0 10.655655 17.465448 20.576916 23.688381 27.674603"
           y="0"
           sodipodi:role="line"
           id="tspan180">Wall 3</tspan></text>
      <g
         id="g184">
        <path
           d="m 37.984,609.164 h 22.395 c 0.281,0 0,-0.281 0,0 v 8.223 c 0,0.156 0.125,0.281 0.281,0.281 h 17.008 c 0.156,0 0.285,-0.125 0.285,-0.281 v -8.223 c 0,-0.281 -0.285,0 0,0 h 16.442 c 0.281,0 0,-0.281 0,0 v 8.223 c 0,0.156 0.125,0.281 0.281,0.281 h 17.008 c 0.156,0 0.285,-0.125 0.285,-0.281 v -8.223 c 0,-0.281 -0.285,0 0,0 h 16.441 c 0.281,0 0,-0.281 0,0 v 8.223 c 0,0.156 0.125,0.281 0.281,0.281 h 17.008 c 0.156,0 0.285,-0.125 0.285,-0.281 v -8.223 c 0,-0.281 -0.285,0 0,0 h 16.442 c 0.281,0 0,-0.281 0,0 v 8.223 c 0,0.156 0.129,0.281 0.281,0.281 h 17.008 c 0.156,0 0.285,-0.125 0.285,-0.281 v -8.223 c 0,-0.281 -0.285,0 0,0 h 16.441 c 0.282,0 0,-0.281 0,0 v 8.223 c 0,0.156 0.129,0.281 0.282,0.281 h 17.007 c 0.157,0 0.286,-0.125 0.286,-0.281 v -8.223 c 0,-0.281 -0.286,0 0,0 h 16.441 c 0.281,0 0,-0.281 0,0 v 8.223 c 0,0.156 0.129,0.281 0.281,0.281 h 17.008 c 0.156,0 0.285,-0.125 0.285,-0.281 v -8.223 c 0,-0.281 -0.285,0 0,0 h 16.442 c 0.285,0 0,-0.281 0,0 v 8.223 c 0,0.156 0.129,0.281 0.285,0.281 h 17.008 c 0.152,0 0.281,-0.125 0.281,-0.281 v -8.223 c 0,-0.281 -0.281,0 0,0 h 30.898 c 0.157,0 0.282,-0.125 0.282,-0.281 v -22.68 c 0,-0.156 -0.125,-0.281 -0.282,-0.281 h -8.222 c -0.282,0 0,0.281 0,0 V 569.48 c 0,-0.285 -0.282,0 0,0 h 8.222 c 0.157,0 0.282,-0.128 0.282,-0.285 v -17.007 c 0,-0.157 -0.125,-0.282 -0.282,-0.282 h -8.222 c -0.282,0 0,0.282 0,0 v -16.441 c 0,-0.285 -0.282,0 0,0 h 8.222 c 0.157,0 0.282,-0.129 0.282,-0.285 v -17.008 c 0,-0.156 -0.125,-0.281 -0.282,-0.281 h -8.222 c -0.282,0 0,0.281 0,0 v -16.442 c 0,-0.285 -0.282,0 0,0 h 8.222 c 0.157,0 0.282,-0.129 0.282,-0.285 v -17.008 c 0,-0.156 -0.125,-0.281 -0.282,-0.281 h -8.222 c -0.282,0 0,0.281 0,0 v -16.441 c 0,-0.286 -0.282,0 0,0 h 8.222 c 0.157,0 0.282,-0.129 0.282,-0.286 v -17.007 c 0,-0.157 -0.125,-0.282 -0.282,-0.282 h -8.222 c -0.282,0 0,0.282 0,0 v -16.441 c 0,-0.285 -0.282,0 0,0 h 8.222 c 0.157,0 0.282,-0.129 0.282,-0.285 v -17.008 c 0,-0.156 -0.125,-0.281 -0.282,-0.281 h -8.222 c -0.282,0 0,0.281 0,0 v -16.442 c 0,-0.285 -0.282,0 0,0 h 8.222 c 0.157,0 0.282,-0.129 0.282,-0.285 v -17.008 c 0,-0.156 -0.125,-0.281 -0.282,-0.281 h -8.222 c -0.282,0 0,0.281 0,0 v -16.441 c 0,-0.285 -0.282,0 0,0 h 8.222 c 0.157,0 0.282,-0.129 0.282,-0.285 v -31.18 c 0,-0.156 -0.125,-0.285 -0.282,-0.285 h -31.179 c -0.157,0 -0.286,0.129 -0.286,0.285 v 8.219 c 0,0.285 0.286,0 0,0 h -16.441 c -0.281,0 0,0.285 0,0 v -8.219 c 0,-0.156 -0.129,-0.285 -0.281,-0.285 h -17.012 c -0.152,0 -0.281,0.129 -0.281,0.285 v 8.219 c 0,0.285 0.281,0 0,0 h -16.442 c -0.285,0 0,0.285 0,0 v -8.219 c 0,-0.156 -0.128,-0.285 -0.285,-0.285 H 213.73 c -0.152,0 -0.281,0.129 -0.281,0.285 v 8.219 c 0,0.285 0.281,0 0,0 h -16.441 c -0.285,0 0,0.285 0,0 v -8.219 c 0,-0.156 -0.129,-0.285 -0.285,-0.285 h -17.008 c -0.152,0 -0.281,0.129 -0.281,0.285 v 8.219 c 0,0.285 0.281,0 0,0 h -16.442 c -0.285,0 0,0.285 0,0 v -8.219 c 0,-0.156 -0.129,-0.285 -0.285,-0.285 h -17.008 c -0.156,0 -0.281,0.129 -0.281,0.285 v 8.219 c 0,0.285 0.281,0 0,0 h -16.441 c -0.286,0 0,0.285 0,0 v -8.219 c 0,-0.156 -0.129,-0.285 -0.286,-0.285 h -17.007 c -0.157,0 -0.282,0.129 -0.282,0.285 v 8.219 c 0,0.285 0.282,0 0,0 H 94.961 c -0.285,0 0,0.285 0,0 v -8.219 c 0,-0.156 -0.129,-0.285 -0.285,-0.285 H 77.668 c -0.156,0 -0.281,0.129 -0.281,0.285 v 8.219 c 0,0.285 0.281,0 0,0 H 60.945 c -0.285,0 0,0.285 0,0 v -8.219 c 0,-0.156 -0.129,-0.285 -0.285,-0.285 H 29.48 c -0.156,0 -0.285,0.129 -0.285,0.285 v 31.18 c 0,0.156 0.129,0.285 0.285,0.285 h 8.219 c 0.285,0 0,-0.285 0,0 v 16.441 c 0,0.281 0.285,0 0,0 H 29.48 c -0.156,0 -0.285,0.125 -0.285,0.281 v 17.008 c 0,0.156 0.129,0.285 0.285,0.285 h 8.219 c 0.285,0 0,-0.285 0,0 v 16.442 c 0,0.281 0.285,0 0,0 H 29.48 c -0.156,0 -0.285,0.125 -0.285,0.281 v 17.008 c 0,0.156 0.129,0.285 0.285,0.285 h 8.219 c 0.285,0 0,-0.285 0,0 v 16.441 c 0,0.282 0.285,0 0,0 H 29.48 c -0.156,0 -0.285,0.125 -0.285,0.282 v 17.007 c 0,0.157 0.129,0.286 0.285,0.286 h 8.219 c 0.285,0 0,-0.286 0,0 v 16.441 c 0,0.281 0.285,0 0,0 H 29.48 c -0.156,0 -0.285,0.125 -0.285,0.281 v 17.008 c 0,0.156 0.129,0.285 0.285,0.285 h 8.219 c 0.285,0 0,-0.285 0,0 v 16.442 c 0,0.281 0.285,0 0,0 H 29.48 c -0.156,0 -0.285,0.125 -0.285,0.281 v 17.008 c 0,0.156 0.129,0.285 0.285,0.285 h 8.219 c 0.285,0 0,-0.285 0,0 v 16.441 c 0,0.282 0.285,0 0,0 H 29.48 c -0.156,0 -0.285,0.125 -0.285,0.282 v 17.007 c 0,0.157 0.129,0.285 0.285,0.285 h 8.219 c 0.285,0 0,-0.285 0,0 v 16.442 c 0,0.281 0.285,0 0,0 H 29.48 c -0.156,0 -0.285,0.125 -0.285,0.281 v 22.68 c 0,0.156 0.129,0.281 0.285,0.281 h 8.504"
           style="fill:none;stroke:#000000;stroke-width:0.566929;stroke-linecap:round;stroke-linejoin:round;stroke-miterlimit:4;stroke-dasharray:none;stroke-opacity:1"
           id="path186" />
      </g>
      <text
         xml:space="preserve"
         transform="translate(161.35501,189.12602)"
         style="font-variant:normal;font-weight:normal;font-size:11.3386px;font-family:Verdana;-inkscape-font-specification:Verdana;writing-mode:lr-tb;fill:#ff0000;fill-opacity:1;fill-rule:nonzero;stroke:none"
         id="text190"><tspan
           x="0 5.7737303 12.655498"
           y="0"
           sodipodi:role="line"
           id="tspan188">Top</tspan></text>
      <g
         id="g192">
        <path
           d="m 37.984,320.883 h 22.395 c 0.281,0 0,-0.285 0,0 v 8.219 c 0,0.156 0.125,0.285 0.281,0.285 h 17.008 c 0.156,0 0.285,-0.129 0.285,-0.285 v -8.219 c 0,-0.285 -0.285,0 0,0 h 16.442 c 0.281,0 0,-0.285 0,0 v 8.219 c 0,0.156 0.125,0.285 0.281,0.285 h 17.008 c 0.156,0 0.285,-0.129 0.285,-0.285 v -8.219 c 0,-0.285 -0.285,0 0,0 h 16.441 c 0.281,0 0,-0.285 0,0 v 8.219 c 0,0.156 0.125,0.285 0.281,0.285 h 17.008 c 0.156,0 0.285,-0.129 0.285,-0.285 v -8.219 c 0,-0.285 -0.285,0 0,0 h 16.442 c 0.281,0 0,-0.285 0,0 v 8.219 c 0,0.156 0.129,0.285 0.281,0.285 h 17.008 c 0.156,0 0.285,-0.129 0.285,-0.285 v -8.219 c 0,-0.285 -0.285,0 0,0 h 16.441 c 0.282,0 0,-0.285 0,0 v 8.219 c 0,0.156 0.129,0.285 0.282,0.285 h 17.007 c 0.157,0 0.286,-0.129 0.286,-0.285 v -8.219 c 0,-0.285 -0.286,0 0,0 h 16.441 c 0.281,0 0,-0.285 0,0 v 8.219 c 0,0.156 0.129,0.285 0.281,0.285 h 17.008 c 0.156,0 0.285,-0.129 0.285,-0.285 v -8.219 c 0,-0.285 -0.285,0 0,0 h 16.442 c 0.285,0 0,-0.285 0,0 v 8.219 c 0,0.156 0.129,0.285 0.285,0.285 h 17.008 c 0.152,0 0.281,-0.129 0.281,-0.285 v -8.219 c 0,-0.285 -0.281,0 0,0 h 22.394 c 0.157,0 0.282,-0.129 0.282,-0.285 v -22.395 c 0,-0.281 -0.282,0 0,0 h 8.222 c 0.157,0 0.282,-0.125 0.282,-0.281 v -17.008 c 0,-0.156 -0.125,-0.285 -0.282,-0.285 h -8.222 c -0.282,0 0,0.285 0,0 v -16.441 c 0,-0.282 -0.282,0 0,0 h 8.222 c 0.157,0 0.282,-0.125 0.282,-0.282 v -17.008 c 0,-0.156 -0.125,-0.285 -0.282,-0.285 h -8.222 c -0.282,0 0,0.285 0,0 v -16.441 c 0,-0.281 -0.282,0 0,0 h 8.222 c 0.157,0 0.282,-0.125 0.282,-0.281 v -17.008 c 0,-0.156 -0.125,-0.285 -0.282,-0.285 h -8.222 c -0.282,0 0,0.285 0,0 v -16.442 c 0,-0.281 -0.282,0 0,0 h 8.222 c 0.157,0 0.282,-0.125 0.282,-0.281 v -17.008 c 0,-0.156 -0.125,-0.285 -0.282,-0.285 h -8.222 c -0.282,0 0,0.285 0,0 v -16.441 c 0,-0.282 -0.282,0 0,0 h 8.222 c 0.157,0 0.282,-0.125 0.282,-0.282 v -17.007 c 0,-0.157 -0.125,-0.286 -0.282,-0.286 h -8.222 c -0.282,0 0,0.286 0,0 v -16.441 c 0,-0.281 -0.282,0 0,0 h 8.222 c 0.157,0 0.282,-0.125 0.282,-0.281 v -17.008 c 0,-0.156 -0.125,-0.285 -0.282,-0.285 h -8.222 c -0.282,0 0,0.285 0,0 V 94.109 c 0,-0.281 -0.282,0 0,0 h 8.222 c 0.157,0 0.282,-0.125 0.282,-0.281 V 76.82 c 0,-0.156 -0.125,-0.285 -0.282,-0.285 h -8.222 c -0.282,0 0,0.285 0,0 V 54.141 c 0,-0.157 -0.125,-0.282 -0.282,-0.282 h -22.394 c -0.281,0 0,0.282 0,0 v -8.222 c 0,-0.157 -0.129,-0.282 -0.281,-0.282 h -17.008 c -0.156,0 -0.285,0.125 -0.285,0.282 v 8.222 c 0,0.282 0.285,0 0,0 h -16.442 c -0.285,0 0,0.282 0,0 v -8.222 c 0,-0.157 -0.129,-0.282 -0.285,-0.282 h -17.008 c -0.152,0 -0.281,0.125 -0.281,0.282 v 8.222 c 0,0.282 0.281,0 0,0 h -16.441 c -0.286,0 0,0.282 0,0 v -8.222 c 0,-0.157 -0.129,-0.282 -0.286,-0.282 h -17.007 c -0.153,0 -0.282,0.125 -0.282,0.282 v 8.222 c 0,0.282 0.282,0 0,0 H 180 c -0.285,0 0,0.282 0,0 v -8.222 c 0,-0.157 -0.129,-0.282 -0.285,-0.282 h -17.008 c -0.152,0 -0.281,0.125 -0.281,0.282 v 8.222 c 0,0.282 0.281,0 0,0 h -16.442 c -0.285,0 0,0.282 0,0 v -8.222 c 0,-0.157 -0.129,-0.282 -0.285,-0.282 h -17.008 c -0.156,0 -0.281,0.125 -0.281,0.282 v 8.222 c 0,0.282 0.281,0 0,0 h -16.441 c -0.285,0 0,0.282 0,0 v -8.222 c 0,-0.157 -0.129,-0.282 -0.285,-0.282 H 94.676 c -0.156,0 -0.281,0.125 -0.281,0.282 v 8.222 c 0,0.282 0.281,0 0,0 H 77.953 c -0.285,0 0,0.282 0,0 v -8.222 c 0,-0.157 -0.129,-0.282 -0.285,-0.282 H 60.66 c -0.156,0 -0.281,0.125 -0.281,0.282 v 8.222 c 0,0.282 0.281,0 0,0 H 37.984 c -0.156,0 -0.285,0.125 -0.285,0.282 v 22.394 c 0,0.285 0.285,0 0,0 H 29.48 c -0.156,0 -0.285,0.129 -0.285,0.285 v 17.008 c 0,0.156 0.129,0.281 0.285,0.281 h 8.219 c 0.285,0 0,-0.281 0,0 v 16.442 c 0,0.285 0.285,0 0,0 H 29.48 c -0.156,0 -0.285,0.129 -0.285,0.285 v 17.008 c 0,0.156 0.129,0.281 0.285,0.281 h 8.219 c 0.285,0 0,-0.281 0,0 v 16.441 c 0,0.286 0.285,0 0,0 H 29.48 c -0.156,0 -0.285,0.129 -0.285,0.286 v 17.007 c 0,0.157 0.129,0.282 0.285,0.282 h 8.219 c 0.285,0 0,-0.282 0,0 v 16.441 c 0,0.285 0.285,0 0,0 H 29.48 c -0.156,0 -0.285,0.129 -0.285,0.285 v 17.008 c 0,0.156 0.129,0.281 0.285,0.281 h 8.219 c 0.285,0 0,-0.281 0,0 v 16.442 c 0,0.285 0.285,0 0,0 H 29.48 c -0.156,0 -0.285,0.129 -0.285,0.285 v 17.008 c 0,0.156 0.129,0.281 0.285,0.281 h 8.219 c 0.285,0 0,-0.281 0,0 v 16.441 c 0,0.285 0.285,0 0,0 H 29.48 c -0.156,0 -0.285,0.129 -0.285,0.285 v 17.008 c 0,0.157 0.129,0.282 0.285,0.282 h 8.219 c 0.285,0 0,-0.282 0,0 v 16.441 c 0,0.285 0.285,0 0,0 H 29.48 c -0.156,0 -0.285,0.129 -0.285,0.285 v 17.008 c 0,0.156 0.129,0.281 0.285,0.281 h 8.219 c 0.285,0 0,-0.281 0,0 v 22.395 c 0,0.156 0.129,0.285 0.285,0.285"
           style="fill:none;stroke:#000000;stroke-width:0.566929;stroke-linecap:round;stroke-linejoin:round;stroke-miterlimit:4;stroke-dasharray:none;stroke-opacity:1"
           id="path194" />
      </g>
      <g
         id="g196">
        <path
           d="m 365.953,320.316 h -8.223 c -0.281,0 0,0.282 0,0 v -7.937 c 0,-0.285 -0.281,0 0,0 h 16.442 c 0.285,0 0,-0.285 0,0 v 7.937 c 0,0.282 0.285,0 0,0 z"
           style="fill:none;stroke:#0000ff;stroke-width:0.566929;stroke-linecap:round;stroke-linejoin:round;stroke-miterlimit:4;stroke-dasharray:none;stroke-opacity:1"
           id="path198" />
      </g>
      <g
         id="g200">
        <path
           d="m 399.969,320.316 h -8.223 c -0.281,0 0,0.282 0,0 v -7.937 c 0,-0.285 -0.281,0 0,0 h 16.442 c 0.285,0 0,-0.285 0,0 v 7.937 c 0,0.282 0.285,0 0,0 z"
           style="fill:none;stroke:#0000ff;stroke-width:0.566929;stroke-linecap:round;stroke-linejoin:round;stroke-miterlimit:4;stroke-dasharray:none;stroke-opacity:1"
           id="path202" />
      </g>
      <g
         id="g204">
        <path
           d="m 433.984,320.316 h -8.218 c -0.286,0 0,0.282 0,0 v -7.937 c 0,-0.285 -0.286,0 0,0 h 16.437 c 0.285,0 0,-0.285 0,0 v 7.937 c 0,0.282 0.285,0 0,0 z"
           style="fill:none;stroke:#0000ff;stroke-width:0.566929;stroke-linecap:round;stroke-linejoin:round;stroke-miterlimit:4;stroke-dasharray:none;stroke-opacity:1"
           id="path206" />
      </g>
      <g
         id="g208">
        <path
           d="m 468,320.316 h -8.219 c -0.285,0 0,0.282 0,0 v -7.937 c 0,-0.285 -0.285,0 0,0 h 16.438 c 0.285,0 0,-0.285 0,0 v 7.937 c 0,0.282 0.285,0 0,0 z"
           style="fill:none;stroke:#0000ff;stroke-width:0.566929;stroke-linecap:round;stroke-linejoin:round;stroke-miterlimit:4;stroke-dasharray:none;stroke-opacity:1"
           id="path210" />
      </g>
      <g
         id="g212">
        <path
           d="m 502.016,320.316 h -8.219 c -0.285,0 0,0.282 0,0 v -7.937 c 0,-0.285 -0.285,0 0,0 h 16.437 c 0.286,0 0,-0.285 0,0 v 7.937 c 0,0.282 0.286,0 0,0 z"
           style="fill:none;stroke:#0000ff;stroke-width:0.566929;stroke-linecap:round;stroke-linejoin:round;stroke-miterlimit:4;stroke-dasharray:none;stroke-opacity:1"
           id="path214" />
      </g>
      <g
         id="g216">
        <path
           d="m 536.031,320.316 h -8.218 c -0.286,0 0,0.282 0,0 v -7.937 c 0,-0.285 -0.286,0 0,0 h 16.441 c 0.281,0 0,-0.285 0,0 v 7.937 c 0,0.282 0.281,0 0,0 z"
           style="fill:none;stroke:#0000ff;stroke-width:0.566929;stroke-linecap:round;stroke-linejoin:round;stroke-miterlimit:4;stroke-dasharray:none;stroke-opacity:1"
           id="path218" />
      </g>
      <g
         id="g220">
        <path
           d="m 570.047,320.316 h -8.219 c -0.285,0 0,0.282 0,0 v -7.937 c 0,-0.285 -0.285,0 0,0 h 16.442 c 0.281,0 0,-0.285 0,0 v 7.937 c 0,0.282 0.281,0 0,0 z"
           style="fill:none;stroke:#0000ff;stroke-width:0.566929;stroke-linecap:round;stroke-linejoin:round;stroke-miterlimit:4;stroke-dasharray:none;stroke-opacity:1"
           id="path222" />
      </g>
      <text
         xml:space="preserve"
         transform="translate(454.37765,180.62208)"
         style="font-variant:normal;font-weight:normal;font-size:11.3386px;font-family:Verdana;-inkscape-font-specification:Verdana;writing-mode:lr-tb;fill:#ff0000;fill-opacity:1;fill-rule:nonzero;stroke:none"
         id="text226"><tspan
           x="0 7.7731299 14.582924 20.49028"
           y="0"
           sodipodi:role="line"
           id="tspan224">Base</tspan></text>
      <g
         id="g228">
        <path
           d="m 334.773,329.387 h 283.461 c 0.157,0 0.286,-0.129 0.286,-0.285 V 28.629 c 0,-0.156 -0.129,-0.281 -0.286,-0.281 H 317.766 c -0.157,0 -0.286,0.125 -0.286,0.281 v 300.473 c 0,0.156 0.129,0.285 0.286,0.285 h 17.007"
           style="fill:none;stroke:#000000;stroke-width:0.566929;stroke-linecap:round;stroke-linejoin:round;stroke-miterlimit:4;stroke-dasharray:none;stroke-opacity:1"
           id="path230" />
      </g>
      <g
         id="g232">
        <path
           d="m 609.449,280.914 v 8.219 c 0,0.285 0.281,0 0,0 h -7.937 c -0.285,0 0,0.285 0,0 v -16.442 c 0,-0.281 -0.285,0 0,0 h 7.937 c 0.281,0 0,-0.281 0,0 z"
           style="fill:none;stroke:#0000ff;stroke-width:0.566929;stroke-linecap:round;stroke-linejoin:round;stroke-miterlimit:4;stroke-dasharray:none;stroke-opacity:1"
           id="path234" />
      </g>
      <g
         id="g236">
        <path
           d="m 609.449,246.898 v 8.219 c 0,0.285 0.281,0 0,0 h -7.937 c -0.285,0 0,0.285 0,0 v -16.441 c 0,-0.281 -0.285,0 0,0 h 7.937 c 0.281,0 0,-0.281 0,0 z"
           style="fill:none;stroke:#0000ff;stroke-width:0.566929;stroke-linecap:round;stroke-linejoin:round;stroke-miterlimit:4;stroke-dasharray:none;stroke-opacity:1"
           id="path238" />
      </g>
      <g
         id="g240">
        <path
           d="m 609.449,212.883 v 8.219 c 0,0.285 0.281,0 0,0 h -7.937 c -0.285,0 0,0.285 0,0 V 204.66 c 0,-0.281 -0.285,0 0,0 h 7.937 c 0.281,0 0,-0.281 0,0 z"
           style="fill:none;stroke:#0000ff;stroke-width:0.566929;stroke-linecap:round;stroke-linejoin:round;stroke-miterlimit:4;stroke-dasharray:none;stroke-opacity:1"
           id="path242" />
      </g>
      <g
         id="g244">
        <path
           d="m 609.449,178.867 v 8.219 c 0,0.285 0.281,0 0,0 h -7.937 c -0.285,0 0,0.285 0,0 v -16.441 c 0,-0.282 -0.285,0 0,0 h 7.937 c 0.281,0 0,-0.282 0,0 z"
           style="fill:none;stroke:#0000ff;stroke-width:0.566929;stroke-linecap:round;stroke-linejoin:round;stroke-miterlimit:4;stroke-dasharray:none;stroke-opacity:1"
           id="path246" />
      </g>
      <g
         id="g248">
        <path
           d="m 609.449,144.852 v 8.218 c 0,0.285 0.281,0 0,0 h -7.937 c -0.285,0 0,0.285 0,0 v -16.441 c 0,-0.281 -0.285,0 0,0 h 7.937 c 0.281,0 0,-0.281 0,0 z"
           style="fill:none;stroke:#0000ff;stroke-width:0.566929;stroke-linecap:round;stroke-linejoin:round;stroke-miterlimit:4;stroke-dasharray:none;stroke-opacity:1"
           id="path250" />
      </g>
      <g
         id="g252">
        <path
           d="m 609.449,110.836 v 8.219 c 0,0.285 0.281,0 0,0 h -7.937 c -0.285,0 0,0.285 0,0 v -16.442 c 0,-0.281 -0.285,0 0,0 h 7.937 c 0.281,0 0,-0.281 0,0 z"
           style="fill:none;stroke:#0000ff;stroke-width:0.566929;stroke-linecap:round;stroke-linejoin:round;stroke-miterlimit:4;stroke-dasharray:none;stroke-opacity:1"
           id="path254" />
      </g>
      <g
         id="g256">
        <path
           d="m 609.449,76.82 v 8.219 c 0,0.285 0.281,0 0,0 h -7.937 c -0.285,0 0,0.285 0,0 V 68.598 c 0,-0.282 -0.285,0 0,0 h 7.937 c 0.281,0 0,-0.282 0,0 z"
           style="fill:none;stroke:#0000ff;stroke-width:0.566929;stroke-linecap:round;stroke-linejoin:round;stroke-miterlimit:4;stroke-dasharray:none;stroke-opacity:1"
           id="path258" />
      </g>
      <g
         id="g260">
        <path
           d="m 570.047,37.418 h 8.223 c 0.281,0 0,-0.285 0,0 v 7.937 c 0,0.282 0.281,0 0,0 h -16.442 c -0.285,0 0,0.282 0,0 v -7.937 c 0,-0.285 -0.285,0 0,0 z"
           style="fill:none;stroke:#0000ff;stroke-width:0.566929;stroke-linecap:round;stroke-linejoin:round;stroke-miterlimit:4;stroke-dasharray:none;stroke-opacity:1"
           id="path262" />
      </g>
      <g
         id="g264">
        <path
           d="m 536.031,37.418 h 8.223 c 0.281,0 0,-0.285 0,0 v 7.937 c 0,0.282 0.281,0 0,0 h -16.441 c -0.286,0 0,0.282 0,0 v -7.937 c 0,-0.285 -0.286,0 0,0 z"
           style="fill:none;stroke:#0000ff;stroke-width:0.566929;stroke-linecap:round;stroke-linejoin:round;stroke-miterlimit:4;stroke-dasharray:none;stroke-opacity:1"
           id="path266" />
      </g>
      <g
         id="g268">
        <path
           d="m 502.016,37.418 h 8.218 c 0.286,0 0,-0.285 0,0 v 7.937 c 0,0.282 0.286,0 0,0 h -16.437 c -0.285,0 0,0.282 0,0 v -7.937 c 0,-0.285 -0.285,0 0,0 z"
           style="fill:none;stroke:#0000ff;stroke-width:0.566929;stroke-linecap:round;stroke-linejoin:round;stroke-miterlimit:4;stroke-dasharray:none;stroke-opacity:1"
           id="path270" />
      </g>
      <g
         id="g272">
        <path
           d="m 468,37.418 h 8.219 c 0.285,0 0,-0.285 0,0 v 7.937 c 0,0.282 0.285,0 0,0 h -16.438 c -0.285,0 0,0.282 0,0 v -7.937 c 0,-0.285 -0.285,0 0,0 z"
           style="fill:none;stroke:#0000ff;stroke-width:0.566929;stroke-linecap:round;stroke-linejoin:round;stroke-miterlimit:4;stroke-dasharray:none;stroke-opacity:1"
           id="path274" />
      </g>
      <g
         id="g276">
        <path
           d="m 433.984,37.418 h 8.219 c 0.285,0 0,-0.285 0,0 v 7.937 c 0,0.282 0.285,0 0,0 h -16.437 c -0.286,0 0,0.282 0,0 v -7.937 c 0,-0.285 -0.286,0 0,0 z"
           style="fill:none;stroke:#0000ff;stroke-width:0.566929;stroke-linecap:round;stroke-linejoin:round;stroke-miterlimit:4;stroke-dasharray:none;stroke-opacity:1"
           id="path278" />
      </g>
      <g
         id="g280">
        <path
           d="m 399.969,37.418 h 8.219 c 0.285,0 0,-0.285 0,0 v 7.937 c 0,0.282 0.285,0 0,0 h -16.442 c -0.281,0 0,0.282 0,0 v -7.937 c 0,-0.285 -0.281,0 0,0 z"
           style="fill:none;stroke:#0000ff;stroke-width:0.566929;stroke-linecap:round;stroke-linejoin:round;stroke-miterlimit:4;stroke-dasharray:none;stroke-opacity:1"
           id="path282" />
      </g>
      <g
         id="g284">
        <path
           d="m 365.953,37.418 h 8.219 c 0.285,0 0,-0.285 0,0 v 7.937 c 0,0.282 0.285,0 0,0 H 357.73 c -0.281,0 0,0.282 0,0 v -7.937 c 0,-0.285 -0.281,0 0,0 z"
           style="fill:none;stroke:#0000ff;stroke-width:0.566929;stroke-linecap:round;stroke-linejoin:round;stroke-miterlimit:4;stroke-dasharray:none;stroke-opacity:1"
           id="path286" />
      </g>
      <g
         id="g288">
        <path
           d="m 326.551,76.82 v -8.222 c 0,-0.282 -0.281,0 0,0 h 7.937 c 0.285,0 0,-0.282 0,0 v 16.441 c 0,0.285 0.285,0 0,0 h -7.937 c -0.281,0 0,0.285 0,0 z"
           style="fill:none;stroke:#0000ff;stroke-width:0.566929;stroke-linecap:round;stroke-linejoin:round;stroke-miterlimit:4;stroke-dasharray:none;stroke-opacity:1"
           id="path290" />
      </g>
      <g
         id="g292">
        <path
           d="m 326.551,110.836 v -8.223 c 0,-0.281 -0.281,0 0,0 h 7.937 c 0.285,0 0,-0.281 0,0 v 16.442 c 0,0.285 0.285,0 0,0 h -7.937 c -0.281,0 0,0.285 0,0 z"
           style="fill:none;stroke:#0000ff;stroke-width:0.566929;stroke-linecap:round;stroke-linejoin:round;stroke-miterlimit:4;stroke-dasharray:none;stroke-opacity:1"
           id="path294" />
      </g>
      <g
         id="g296">
        <path
           d="m 326.551,144.852 v -8.223 c 0,-0.281 -0.281,0 0,0 h 7.937 c 0.285,0 0,-0.281 0,0 v 16.441 c 0,0.285 0.285,0 0,0 h -7.937 c -0.281,0 0,0.285 0,0 z"
           style="fill:none;stroke:#0000ff;stroke-width:0.566929;stroke-linecap:round;stroke-linejoin:round;stroke-miterlimit:4;stroke-dasharray:none;stroke-opacity:1"
           id="path298" />
      </g>
      <g
         id="g300">
        <path
           d="m 326.551,178.867 v -8.222 c 0,-0.282 -0.281,0 0,0 h 7.937 c 0.285,0 0,-0.282 0,0 v 16.441 c 0,0.285 0.285,0 0,0 h -7.937 c -0.281,0 0,0.285 0,0 z"
           style="fill:none;stroke:#0000ff;stroke-width:0.566929;stroke-linecap:round;stroke-linejoin:round;stroke-miterlimit:4;stroke-dasharray:none;stroke-opacity:1"
           id="path302" />
      </g>
      <g
         id="g304">
        <path
           d="m 326.551,212.883 v -8.223 c 0,-0.281 -0.281,0 0,0 h 7.937 c 0.285,0 0,-0.281 0,0 v 16.442 c 0,0.285 0.285,0 0,0 h -7.937 c -0.281,0 0,0.285 0,0 z"
           style="fill:none;stroke:#0000ff;stroke-width:0.566929;stroke-linecap:round;stroke-linejoin:round;stroke-miterlimit:4;stroke-dasharray:none;stroke-opacity:1"
           id="path306" />
      </g>
      <g
         id="g308">
        <path
           d="m 326.551,246.898 v -8.222 c 0,-0.281 -0.281,0 0,0 h 7.937 c 0.285,0 0,-0.281 0,0 v 16.441 c 0,0.285 0.285,0 0,0 h -7.937 c -0.281,0 0,0.285 0,0 z"
           style="fill:none;stroke:#0000ff;stroke-width:0.566929;stroke-linecap:round;stroke-linejoin:round;stroke-miterlimit:4;stroke-dasharray:none;stroke-opacity:1"
           id="path310" />
      </g>
      <g
         id="g312">
        <path
           d="m 326.551,280.914 v -8.223 c 0,-0.281 -0.281,0 0,0 h 7.937 c 0.285,0 0,-0.281 0,0 v 16.442 c 0,0.285 0.285,0 0,0 h -7.937 c -0.281,0 0,0.285 0,0 z"
           style="fill:none;stroke:#0000ff;stroke-width:0.566929;stroke-linecap:round;stroke-linejoin:round;stroke-miterlimit:4;stroke-dasharray:none;stroke-opacity:1"
           id="path314" />
      </g>
      <g
         id="g316">
        <path
           d="m 96,400.875 h 145.125 v 30 H 96 Z"
           style="fill:#000000;fill-opacity:1;fill-rule:nonzero;stroke:#000000;stroke-width:0.04;stroke-linecap:butt;stroke-linejoin:miter;stroke-miterlimit:4;stroke-dasharray:none;stroke-opacity:1"
           id="path318" />
      </g>
    </g>
  </g>
</svg>
