<?xml version="1.0" encoding="UTF-8" standalone="no"?>
<svg
   width="222.20mm"
   height="265.30mm"
   viewBox="0.0 0.0 222.20 265.30"
   version="1.1"
   id="svg16158"
   sodipodi:docname="ClosedBoxEmil.svg"
   inkscape:version="1.2.1 (9c6d41e410, 2022-07-14)"
   xmlns:inkscape="http://www.inkscape.org/namespaces/inkscape"
   xmlns:sodipodi="http://sodipodi.sourceforge.net/DTD/sodipodi-0.dtd"
   xmlns="http://www.w3.org/2000/svg"
   xmlns:svg="http://www.w3.org/2000/svg"
   xmlns:rdf="http://www.w3.org/1999/02/22-rdf-syntax-ns#"
   xmlns:cc="http://creativecommons.org/ns#"
   xmlns:dc="http://purl.org/dc/elements/1.1/">
  <defs
     id="defs16162" />
  <sodipodi:namedview
     id="namedview16160"
     pagecolor="#ffffff"
     bordercolor="#000000"
     borderopacity="0.25"
     inkscape:showpageshadow="2"
     inkscape:pageopacity="0.0"
     inkscape:pagecheckerboard="0"
     inkscape:deskcolor="#d1d1d1"
     inkscape:document-units="mm"
     showgrid="false"
     inkscape:zoom="0.56697812"
     inkscape:cx="814.84625"
     inkscape:cy="593.49733"
     inkscape:window-width="1920"
     inkscape:window-height="991"
     inkscape:window-x="2091"
     inkscape:window-y="-9"
     inkscape:window-maximized="1"
     inkscape:current-layer="svg16158" />
  <!--
ClosedBox - Fully closed box


This box is more of a building block than a finished item.
Use a vector graphics program (like Inkscape) to add holes or adjust the base
plate.

See BasedBox for variant with a base.


Created with Boxes.py (https://festi.info/boxes.py)
Creation date: 2023-01-11 10:57:17
Command line (remove spaces between dashes): boxes ClosedBox - -FingerJoint_angle=90.0 - -FingerJoint_style=rectangular - -FingerJoint_surroundingspaces=2.0 - -FingerJoint_bottom_lip=0.0 - -FingerJoint_edge_width=1.0 - -FingerJoint_extra_length=0.0 - -FingerJoint_finger=2.0 - -FingerJoint_play=0.0 - -FingerJoint_space=2.0 - -FingerJoint_width=1.0 - -x=100.0 - -y=100.0 - -h=65 - -outside=0 - -outside=1 - -thickness=3.0 - -format=svg - -tabs=0.0 - -debug=0 - -labels=0 - -labels=1 - -reference=100 - -inner_corners=loop - -burn=0.1
Url: http://www.festi.info/ClosedBox?FingerJoint_angle=90.0&FingerJoint_style=rectangular&FingerJoint_surroundingspaces=2.0&FingerJoint_bottom_lip=0.0&FingerJoint_edge_width=1.0&FingerJoint_extra_length=0.0&FingerJoint_finger=2.0&FingerJoint_play=0.0&FingerJoint_space=2.0&FingerJoint_width=1.0&x=100.0&y=100.0&h=65&outside=0&outside=1&thickness=3.0&format=svg&tabs=0.0&debug=0&labels=0&labels=1&reference=100&inner_corners=loop&burn=0.1&render=1
SettingsUrl: http://www.festi.info/ClosedBox?FingerJoint_angle=90.0&FingerJoint_style=rectangular&FingerJoint_surroundingspaces=2.0&FingerJoint_bottom_lip=0.0&FingerJoint_edge_width=1.0&FingerJoint_extra_length=0.0&FingerJoint_finger=2.0&FingerJoint_play=0.0&FingerJoint_space=2.0&FingerJoint_width=1.0&x=100.0&y=100.0&h=65&outside=0&outside=1&thickness=3.0&format=svg&tabs=0.0&debug=0&labels=0&labels=1&reference=100&inner_corners=loop&burn=0.1
-->
  <title
     id="title16119">ClosedBox</title>
  <metadata
     id="metadata16121">
    <rdf:RDF>
      <cc:Work>
        <dc:title>ClosedBox</dc:title>
        <dc:date>2023-01-11 10:57:17</dc:date>
        <dc:source>http://www.festi.info/ClosedBox?FingerJoint_angle=90.0&amp;FingerJoint_style=rectangular&amp;FingerJoint_surroundingspaces=2.0&amp;FingerJoint_bottom_lip=0.0&amp;FingerJoint_edge_width=1.0&amp;FingerJoint_extra_length=0.0&amp;FingerJoint_finger=2.0&amp;FingerJoint_play=0.0&amp;FingerJoint_space=2.0&amp;FingerJoint_width=1.0&amp;x=100.0&amp;y=100.0&amp;h=65&amp;outside=0&amp;outside=1&amp;thickness=3.0&amp;format=svg&amp;tabs=0.0&amp;debug=0&amp;labels=0&amp;labels=1&amp;reference=100&amp;inner_corners=loop&amp;burn=0.1&amp;render=1</dc:source>
        <dc:description>Fully closed box

This box is more of a building block than a finished item.
Use a vector graphics program (like Inkscape) to add holes or adjust the base
plate.

See BasedBox for variant with a base.

Created with Boxes.py (https://festi.info/boxes.py)
Command line: boxes ClosedBox --FingerJoint_angle=90.0 --FingerJoint_style=rectangular --FingerJoint_surroundingspaces=2.0 --FingerJoint_bottom_lip=0.0 --FingerJoint_edge_width=1.0 --FingerJoint_extra_length=0.0 --FingerJoint_finger=2.0 --FingerJoint_play=0.0 --FingerJoint_space=2.0 --FingerJoint_width=1.0 --x=100.0 --y=100.0 --h=65 --outside=0 --outside=1 --thickness=3.0 --format=svg --tabs=0.0 --debug=0 --labels=0 --labels=1 --reference=100 --inner_corners=loop --burn=0.1
Url: http://www.festi.info/ClosedBox?FingerJoint_angle=90.0&amp;FingerJoint_style=rectangular&amp;FingerJoint_surroundingspaces=2.0&amp;FingerJoint_bottom_lip=0.0&amp;FingerJoint_edge_width=1.0&amp;FingerJoint_extra_length=0.0&amp;FingerJoint_finger=2.0&amp;FingerJoint_play=0.0&amp;FingerJoint_space=2.0&amp;FingerJoint_width=1.0&amp;x=100.0&amp;y=100.0&amp;h=65&amp;outside=0&amp;outside=1&amp;thickness=3.0&amp;format=svg&amp;tabs=0.0&amp;debug=0&amp;labels=0&amp;labels=1&amp;reference=100&amp;inner_corners=loop&amp;burn=0.1&amp;render=1
SettingsUrl: http://www.festi.info/ClosedBox?FingerJoint_angle=90.0&amp;FingerJoint_style=rectangular&amp;FingerJoint_surroundingspaces=2.0&amp;FingerJoint_bottom_lip=0.0&amp;FingerJoint_edge_width=1.0&amp;FingerJoint_extra_length=0.0&amp;FingerJoint_finger=2.0&amp;FingerJoint_play=0.0&amp;FingerJoint_space=2.0&amp;FingerJoint_width=1.0&amp;x=100.0&amp;y=100.0&amp;h=65&amp;outside=0&amp;outside=1&amp;thickness=3.0&amp;format=svg&amp;tabs=0.0&amp;debug=0&amp;labels=0&amp;labels=1&amp;reference=100&amp;inner_corners=loop&amp;burn=0.1
</dc:description>
      </cc:Work>
    </rdf:RDF>
  </metadata>
  <g
     id="p-1"
     style="fill:none;stroke-linecap:round;stroke-linejoin:round;stroke:#000000;stroke-opacity:1;stroke-width:0.00000016;stroke-dasharray:none">
    <path
       d="M 13.400 243.600 H 21.400 C 21.455 243.600 21.500 243.555 21.500 243.500 V 240.600 C 21.500 240.500 21.400 240.600 21.500 240.600 H 27.300 C 27.400 240.600 27.300 240.500 27.300 240.600 V 243.500 C 27.300 243.555 27.345 243.600 27.400 243.600 H 33.400 C 33.455 243.600 33.500 243.555 33.500 243.500 V 240.600 C 33.500 240.500 33.400 240.600 33.500 240.600 H 39.300 C 39.400 240.600 39.300 240.500 39.300 240.600 V 243.500 C 39.300 243.555 39.345 243.600 39.400 243.600 H 45.400 C 45.455 243.600 45.500 243.555 45.500 243.500 V 240.600 C 45.500 240.500 45.400 240.600 45.500 240.600 H 51.300 C 51.400 240.600 51.300 240.500 51.300 240.600 V 243.500 C 51.300 243.555 51.345 243.600 51.400 243.600 H 57.400 C 57.455 243.600 57.500 243.555 57.500 243.500 V 240.600 C 57.500 240.500 57.400 240.600 57.500 240.600 H 63.300 C 63.400 240.600 63.300 240.500 63.300 240.600 V 243.500 C 63.300 243.555 63.345 243.600 63.400 243.600 H 69.400 C 69.455 243.600 69.500 243.555 69.500 243.500 V 240.600 C 69.500 240.500 69.400 240.600 69.500 240.600 H 75.300 C 75.400 240.600 75.300 240.500 75.300 240.600 V 243.500 C 75.300 243.555 75.345 243.600 75.400 243.600 H 81.400 C 81.455 243.600 81.500 243.555 81.500 243.500 V 240.600 C 81.500 240.500 81.400 240.600 81.500 240.600 H 87.300 C 87.400 240.600 87.300 240.500 87.300 240.600 V 243.500 C 87.300 243.555 87.345 243.600 87.400 243.600 H 93.400 C 93.455 243.600 93.500 243.555 93.500 243.500 V 240.600 C 93.500 240.500 93.400 240.600 93.500 240.600 H 99.300 C 99.400 240.600 99.300 240.500 99.300 240.600 V 243.500 C 99.300 243.555 99.345 243.600 99.400 243.600 H 107.400 H 110.400 C 110.455 243.600 110.500 243.555 110.500 243.500 V 240.500 V 232.000 C 110.500 231.945 110.455 231.900 110.400 231.900 H 107.500 C 107.400 231.900 107.500 232.000 107.500 231.900 V 226.100 C 107.500 226.000 107.400 226.100 107.500 226.100 H 110.400 C 110.455 226.100 110.500 226.055 110.500 226.000 V 220.000 C 110.500 219.945 110.455 219.900 110.400 219.900 H 107.500 C 107.400 219.900 107.500 220.000 107.500 219.900 V 214.100 C 107.500 214.000 107.400 214.100 107.500 214.100 H 110.400 C 110.455 214.100 110.500 214.055 110.500 214.000 V 208.000 C 110.500 207.945 110.455 207.900 110.400 207.900 H 107.500 C 107.400 207.900 107.500 208.000 107.500 207.900 V 202.100 C 107.500 202.000 107.400 202.100 107.500 202.100 H 110.400 C 110.455 202.100 110.500 202.055 110.500 202.000 V 196.000 C 110.500 195.945 110.455 195.900 110.400 195.900 H 107.500 C 107.400 195.900 107.500 196.000 107.500 195.900 V 190.100 C 107.500 190.000 107.400 190.100 107.500 190.100 H 110.400 C 110.455 190.100 110.500 190.055 110.500 190.000 V 181.500 V 178.500 C 110.500 178.445 110.455 178.400 110.400 178.400 H 107.400 H 99.400 C 99.345 178.400 99.300 178.445 99.300 178.500 V 181.400 C 99.300 181.500 99.400 181.400 99.300 181.400 H 93.500 C 93.400 181.400 93.500 181.500 93.500 181.400 V 178.500 C 93.500 178.445 93.455 178.400 93.400 178.400 H 87.400 C 87.345 178.400 87.300 178.445 87.300 178.500 V 181.400 C 87.300 181.500 87.400 181.400 87.300 181.400 H 81.500 C 81.400 181.400 81.500 181.500 81.500 181.400 V 178.500 C 81.500 178.445 81.455 178.400 81.400 178.400 H 75.400 C 75.345 178.400 75.300 178.445 75.300 178.500 V 181.400 C 75.300 181.500 75.400 181.400 75.300 181.400 H 69.500 C 69.400 181.400 69.500 181.500 69.500 181.400 V 178.500 C 69.500 178.445 69.455 178.400 69.400 178.400 H 63.400 C 63.345 178.400 63.300 178.445 63.300 178.500 V 181.400 C 63.300 181.500 63.400 181.400 63.300 181.400 H 57.500 C 57.400 181.400 57.500 181.500 57.500 181.400 V 178.500 C 57.500 178.445 57.455 178.400 57.400 178.400 H 51.400 C 51.345 178.400 51.300 178.445 51.300 178.500 V 181.400 C 51.300 181.500 51.400 181.400 51.300 181.400 H 45.500 C 45.400 181.400 45.500 181.500 45.500 181.400 V 178.500 C 45.500 178.445 45.455 178.400 45.400 178.400 H 39.400 C 39.345 178.400 39.300 178.445 39.300 178.500 V 181.400 C 39.300 181.500 39.400 181.400 39.300 181.400 H 33.500 C 33.400 181.400 33.500 181.500 33.500 181.400 V 178.500 C 33.500 178.445 33.455 178.400 33.400 178.400 H 27.400 C 27.345 178.400 27.300 178.445 27.300 178.500 V 181.400 C 27.300 181.500 27.400 181.400 27.300 181.400 H 21.500 C 21.400 181.400 21.500 181.500 21.500 181.400 V 178.500 C 21.500 178.445 21.455 178.400 21.400 178.400 H 13.400 H 10.400 C 10.345 178.400 10.300 178.445 10.300 178.500 V 181.500 V 190.000 C 10.300 190.055 10.345 190.100 10.400 190.100 H 13.300 C 13.400 190.100 13.300 190.000 13.300 190.100 V 195.900 C 13.300 196.000 13.400 195.900 13.300 195.900 H 10.400 C 10.345 195.900 10.300 195.945 10.300 196.000 V 202.000 C 10.300 202.055 10.345 202.100 10.400 202.100 H 13.300 C 13.400 202.100 13.300 202.000 13.300 202.100 V 207.900 C 13.300 208.000 13.400 207.900 13.300 207.900 H 10.400 C 10.345 207.900 10.300 207.945 10.300 208.000 V 214.000 C 10.300 214.055 10.345 214.100 10.400 214.100 H 13.300 C 13.400 214.100 13.300 214.000 13.300 214.100 V 219.900 C 13.300 220.000 13.400 219.900 13.300 219.900 H 10.400 C 10.345 219.900 10.300 219.945 10.300 220.000 V 226.000 C 10.300 226.055 10.345 226.100 10.400 226.100 H 13.300 C 13.400 226.100 13.300 226.000 13.300 226.100 V 231.900 C 13.300 232.000 13.400 231.900 13.300 231.900 H 10.400 C 10.345 231.900 10.300 231.945 10.300 232.000 V 240.500 V 243.500 C 10.300 243.555 10.345 243.600 10.400 243.600 H 13.400"
       stroke="rgb(0,0,0)"
       stroke-width="0.20"
       id="path16130"
       style="fill:none;stroke:#000000;stroke-opacity:1;stroke-width:0.00000016;stroke-dasharray:none" />
  </g>
  <g
     id="p-2"
     style="fill:none;stroke-linecap:round;stroke-linejoin:round;stroke:#000000;stroke-opacity:1;stroke-width:0.00000016;stroke-dasharray:none">
    <path
       d="M 115.100 243.600 H 123.100 C 123.155 243.600 123.200 243.555 123.200 243.500 V 240.600 C 123.200 240.500 123.100 240.600 123.200 240.600 H 129.000 C 129.100 240.600 129.000 240.500 129.000 240.600 V 243.500 C 129.000 243.555 129.045 243.600 129.100 243.600 H 135.100 C 135.155 243.600 135.200 243.555 135.200 243.500 V 240.600 C 135.200 240.500 135.100 240.600 135.200 240.600 H 141.000 C 141.100 240.600 141.000 240.500 141.000 240.600 V 243.500 C 141.000 243.555 141.045 243.600 141.100 243.600 H 147.100 C 147.155 243.600 147.200 243.555 147.200 243.500 V 240.600 C 147.200 240.500 147.100 240.600 147.200 240.600 H 153.000 C 153.100 240.600 153.000 240.500 153.000 240.600 V 243.500 C 153.000 243.555 153.045 243.600 153.100 243.600 H 159.100 C 159.155 243.600 159.200 243.555 159.200 243.500 V 240.600 C 159.200 240.500 159.100 240.600 159.200 240.600 H 165.000 C 165.100 240.600 165.000 240.500 165.000 240.600 V 243.500 C 165.000 243.555 165.045 243.600 165.100 243.600 H 171.100 C 171.155 243.600 171.200 243.555 171.200 243.500 V 240.600 C 171.200 240.500 171.100 240.600 171.200 240.600 H 177.000 C 177.100 240.600 177.000 240.500 177.000 240.600 V 243.500 C 177.000 243.555 177.045 243.600 177.100 243.600 H 183.100 C 183.155 243.600 183.200 243.555 183.200 243.500 V 240.600 C 183.200 240.500 183.100 240.600 183.200 240.600 H 189.000 C 189.100 240.600 189.000 240.500 189.000 240.600 V 243.500 C 189.000 243.555 189.045 243.600 189.100 243.600 H 195.100 C 195.155 243.600 195.200 243.555 195.200 243.500 V 240.600 C 195.200 240.500 195.100 240.600 195.200 240.600 H 201.000 C 201.100 240.600 201.000 240.500 201.000 240.600 V 243.500 C 201.000 243.555 201.045 243.600 201.100 243.600 H 209.100 C 209.155 243.600 209.200 243.555 209.200 243.500 V 240.500 V 232.100 C 209.200 232.000 209.100 232.100 209.200 232.100 H 212.100 C 212.155 232.100 212.200 232.055 212.200 232.000 V 226.000 C 212.200 225.945 212.155 225.900 212.100 225.900 H 209.200 C 209.100 225.900 209.200 226.000 209.200 225.900 V 220.100 C 209.200 220.000 209.100 220.100 209.200 220.100 H 212.100 C 212.155 220.100 212.200 220.055 212.200 220.000 V 214.000 C 212.200 213.945 212.155 213.900 212.100 213.900 H 209.200 C 209.100 213.900 209.200 214.000 209.200 213.900 V 208.100 C 209.200 208.000 209.100 208.100 209.200 208.100 H 212.100 C 212.155 208.100 212.200 208.055 212.200 208.000 V 202.000 C 212.200 201.945 212.155 201.900 212.100 201.900 H 209.200 C 209.100 201.900 209.200 202.000 209.200 201.900 V 196.100 C 209.200 196.000 209.100 196.100 209.200 196.100 H 212.100 C 212.155 196.100 212.200 196.055 212.200 196.000 V 190.000 C 212.200 189.945 212.155 189.900 212.100 189.900 H 209.200 C 209.100 189.900 209.200 190.000 209.200 189.900 V 181.500 V 178.500 C 209.200 178.445 209.155 178.400 209.100 178.400 H 201.100 C 201.045 178.400 201.000 178.445 201.000 178.500 V 181.400 C 201.000 181.500 201.100 181.400 201.000 181.400 H 195.200 C 195.100 181.400 195.200 181.500 195.200 181.400 V 178.500 C 195.200 178.445 195.155 178.400 195.100 178.400 H 189.100 C 189.045 178.400 189.000 178.445 189.000 178.500 V 181.400 C 189.000 181.500 189.100 181.400 189.000 181.400 H 183.200 C 183.100 181.400 183.200 181.500 183.200 181.400 V 178.500 C 183.200 178.445 183.155 178.400 183.100 178.400 H 177.100 C 177.045 178.400 177.000 178.445 177.000 178.500 V 181.400 C 177.000 181.500 177.100 181.400 177.000 181.400 H 171.200 C 171.100 181.400 171.200 181.500 171.200 181.400 V 178.500 C 171.200 178.445 171.155 178.400 171.100 178.400 H 165.100 C 165.045 178.400 165.000 178.445 165.000 178.500 V 181.400 C 165.000 181.500 165.100 181.400 165.000 181.400 H 159.200 C 159.100 181.400 159.200 181.500 159.200 181.400 V 178.500 C 159.200 178.445 159.155 178.400 159.100 178.400 H 153.100 C 153.045 178.400 153.000 178.445 153.000 178.500 V 181.400 C 153.000 181.500 153.100 181.400 153.000 181.400 H 147.200 C 147.100 181.400 147.200 181.500 147.200 181.400 V 178.500 C 147.200 178.445 147.155 178.400 147.100 178.400 H 141.100 C 141.045 178.400 141.000 178.445 141.000 178.500 V 181.400 C 141.000 181.500 141.100 181.400 141.000 181.400 H 135.200 C 135.100 181.400 135.200 181.500 135.200 181.400 V 178.500 C 135.200 178.445 135.155 178.400 135.100 178.400 H 129.100 C 129.045 178.400 129.000 178.445 129.000 178.500 V 181.400 C 129.000 181.500 129.100 181.400 129.000 181.400 H 123.200 C 123.100 181.400 123.200 181.500 123.200 181.400 V 178.500 C 123.200 178.445 123.155 178.400 123.100 178.400 H 115.100 C 115.045 178.400 115.000 178.445 115.000 178.500 V 181.500 V 189.900 C 115.000 190.000 115.100 189.900 115.000 189.900 H 112.100 C 112.045 189.900 112.000 189.945 112.000 190.000 V 196.000 C 112.000 196.055 112.045 196.100 112.100 196.100 H 115.000 C 115.100 196.100 115.000 196.000 115.000 196.100 V 201.900 C 115.000 202.000 115.100 201.900 115.000 201.900 H 112.100 C 112.045 201.900 112.000 201.945 112.000 202.000 V 208.000 C 112.000 208.055 112.045 208.100 112.100 208.100 H 115.000 C 115.100 208.100 115.000 208.000 115.000 208.100 V 213.900 C 115.000 214.000 115.100 213.900 115.000 213.900 H 112.100 C 112.045 213.900 112.000 213.945 112.000 214.000 V 220.000 C 112.000 220.055 112.045 220.100 112.100 220.100 H 115.000 C 115.100 220.100 115.000 220.000 115.000 220.100 V 225.900 C 115.000 226.000 115.100 225.900 115.000 225.900 H 112.100 C 112.045 225.900 112.000 225.945 112.000 226.000 V 232.000 C 112.000 232.055 112.045 232.100 112.100 232.100 H 115.000 C 115.100 232.100 115.000 232.000 115.000 232.100 V 240.500 V 243.500 C 115.000 243.555 115.045 243.600 115.100 243.600"
       stroke="rgb(0,0,0)"
       stroke-width="0.20"
       id="path16135"
       style="fill:none;stroke:#000000;stroke-opacity:1;stroke-width:0.00000016;stroke-dasharray:none" />
  </g>
  <g
     id="p-3"
     style="fill:none;stroke-linecap:round;stroke-linejoin:round;stroke:#000000;stroke-opacity:1;stroke-width:0.00000016;stroke-dasharray:none">
    <path
       d="M 115.100 176.900 H 123.100 C 123.155 176.900 123.200 176.855 123.200 176.800 V 173.900 C 123.200 173.800 123.100 173.900 123.200 173.900 H 129.000 C 129.100 173.900 129.000 173.800 129.000 173.900 V 176.800 C 129.000 176.855 129.045 176.900 129.100 176.900 H 135.100 C 135.155 176.900 135.200 176.855 135.200 176.800 V 173.900 C 135.200 173.800 135.100 173.900 135.200 173.900 H 141.000 C 141.100 173.900 141.000 173.800 141.000 173.900 V 176.800 C 141.000 176.855 141.045 176.900 141.100 176.900 H 147.100 C 147.155 176.900 147.200 176.855 147.200 176.800 V 173.900 C 147.200 173.800 147.100 173.900 147.200 173.900 H 153.000 C 153.100 173.900 153.000 173.800 153.000 173.900 V 176.800 C 153.000 176.855 153.045 176.900 153.100 176.900 H 159.100 C 159.155 176.900 159.200 176.855 159.200 176.800 V 173.900 C 159.200 173.800 159.100 173.900 159.200 173.900 H 165.000 C 165.100 173.900 165.000 173.800 165.000 173.900 V 176.800 C 165.000 176.855 165.045 176.900 165.100 176.900 H 171.100 C 171.155 176.900 171.200 176.855 171.200 176.800 V 173.900 C 171.200 173.800 171.100 173.900 171.200 173.900 H 177.000 C 177.100 173.900 177.000 173.800 177.000 173.900 V 176.800 C 177.000 176.855 177.045 176.900 177.100 176.900 H 183.100 C 183.155 176.900 183.200 176.855 183.200 176.800 V 173.900 C 183.200 173.800 183.100 173.900 183.200 173.900 H 189.000 C 189.100 173.900 189.000 173.800 189.000 173.900 V 176.800 C 189.000 176.855 189.045 176.900 189.100 176.900 H 195.100 C 195.155 176.900 195.200 176.855 195.200 176.800 V 173.900 C 195.200 173.800 195.100 173.900 195.200 173.900 H 201.000 C 201.100 173.900 201.000 173.800 201.000 173.900 V 176.800 C 201.000 176.855 201.045 176.900 201.100 176.900 H 209.100 C 209.155 176.900 209.200 176.855 209.200 176.800 V 173.800 V 165.400 C 209.200 165.300 209.100 165.400 209.200 165.400 H 212.100 C 212.155 165.400 212.200 165.355 212.200 165.300 V 159.300 C 212.200 159.245 212.155 159.200 212.100 159.200 H 209.200 C 209.100 159.200 209.200 159.300 209.200 159.200 V 153.400 C 209.200 153.300 209.100 153.400 209.200 153.400 H 212.100 C 212.155 153.400 212.200 153.355 212.200 153.300 V 147.300 C 212.200 147.245 212.155 147.200 212.100 147.200 H 209.200 C 209.100 147.200 209.200 147.300 209.200 147.200 V 141.400 C 209.200 141.300 209.100 141.400 209.200 141.400 H 212.100 C 212.155 141.400 212.200 141.355 212.200 141.300 V 135.300 C 212.200 135.245 212.155 135.200 212.100 135.200 H 209.200 C 209.100 135.200 209.200 135.300 209.200 135.200 V 129.400 C 209.200 129.300 209.100 129.400 209.200 129.400 H 212.100 C 212.155 129.400 212.200 129.355 212.200 129.300 V 123.300 C 212.200 123.245 212.155 123.200 212.100 123.200 H 209.200 C 209.100 123.200 209.200 123.300 209.200 123.200 V 114.800 V 111.800 C 209.200 111.745 209.155 111.700 209.100 111.700 H 201.100 C 201.045 111.700 201.000 111.745 201.000 111.800 V 114.700 C 201.000 114.800 201.100 114.700 201.000 114.700 H 195.200 C 195.100 114.700 195.200 114.800 195.200 114.700 V 111.800 C 195.200 111.745 195.155 111.700 195.100 111.700 H 189.100 C 189.045 111.700 189.000 111.745 189.000 111.800 V 114.700 C 189.000 114.800 189.100 114.700 189.000 114.700 H 183.200 C 183.100 114.700 183.200 114.800 183.200 114.700 V 111.800 C 183.200 111.745 183.155 111.700 183.100 111.700 H 177.100 C 177.045 111.700 177.000 111.745 177.000 111.800 V 114.700 C 177.000 114.800 177.100 114.700 177.000 114.700 H 171.200 C 171.100 114.700 171.200 114.800 171.200 114.700 V 111.800 C 171.200 111.745 171.155 111.700 171.100 111.700 H 165.100 C 165.045 111.700 165.000 111.745 165.000 111.800 V 114.700 C 165.000 114.800 165.100 114.700 165.000 114.700 H 159.200 C 159.100 114.700 159.200 114.800 159.200 114.700 V 111.800 C 159.200 111.745 159.155 111.700 159.100 111.700 H 153.100 C 153.045 111.700 153.000 111.745 153.000 111.800 V 114.700 C 153.000 114.800 153.100 114.700 153.000 114.700 H 147.200 C 147.100 114.700 147.200 114.800 147.200 114.700 V 111.800 C 147.200 111.745 147.155 111.700 147.100 111.700 H 141.100 C 141.045 111.700 141.000 111.745 141.000 111.800 V 114.700 C 141.000 114.800 141.100 114.700 141.000 114.700 H 135.200 C 135.100 114.700 135.200 114.800 135.200 114.700 V 111.800 C 135.200 111.745 135.155 111.700 135.100 111.700 H 129.100 C 129.045 111.700 129.000 111.745 129.000 111.800 V 114.700 C 129.000 114.800 129.100 114.700 129.000 114.700 H 123.200 C 123.100 114.700 123.200 114.800 123.200 114.700 V 111.800 C 123.200 111.745 123.155 111.700 123.100 111.700 H 115.100 C 115.045 111.700 115.000 111.745 115.000 111.800 V 114.800 V 123.200 C 115.000 123.300 115.100 123.200 115.000 123.200 H 112.100 C 112.045 123.200 112.000 123.245 112.000 123.300 V 129.300 C 112.000 129.355 112.045 129.400 112.100 129.400 H 115.000 C 115.100 129.400 115.000 129.300 115.000 129.400 V 135.200 C 115.000 135.300 115.100 135.200 115.000 135.200 H 112.100 C 112.045 135.200 112.000 135.245 112.000 135.300 V 141.300 C 112.000 141.355 112.045 141.400 112.100 141.400 H 115.000 C 115.100 141.400 115.000 141.300 115.000 141.400 V 147.200 C 115.000 147.300 115.100 147.200 115.000 147.200 H 112.100 C 112.045 147.200 112.000 147.245 112.000 147.300 V 153.300 C 112.000 153.355 112.045 153.400 112.100 153.400 H 115.000 C 115.100 153.400 115.000 153.300 115.000 153.400 V 159.200 C 115.000 159.300 115.100 159.200 115.000 159.200 H 112.100 C 112.045 159.200 112.000 159.245 112.000 159.300 V 165.300 C 112.000 165.355 112.045 165.400 112.100 165.400 H 115.000 C 115.100 165.400 115.000 165.300 115.000 165.400 V 173.800 V 176.800 C 115.000 176.855 115.045 176.900 115.100 176.900"
       stroke="rgb(0,0,0)"
       stroke-width="0.20"
       id="path16140"
       style="fill:none;stroke:#000000;stroke-opacity:1;stroke-width:0.00000016;stroke-dasharray:none" />
  </g>
  <g
     id="p-4"
     style="fill:none;stroke-linecap:round;stroke-linejoin:round;stroke:#000000;stroke-opacity:1;stroke-width:0.00000016;stroke-dasharray:none">
    <path
       d="M 13.400 176.900 H 21.400 C 21.455 176.900 21.500 176.855 21.500 176.800 V 173.900 C 21.500 173.800 21.400 173.900 21.500 173.900 H 27.300 C 27.400 173.900 27.300 173.800 27.300 173.900 V 176.800 C 27.300 176.855 27.345 176.900 27.400 176.900 H 33.400 C 33.455 176.900 33.500 176.855 33.500 176.800 V 173.900 C 33.500 173.800 33.400 173.900 33.500 173.900 H 39.300 C 39.400 173.900 39.300 173.800 39.300 173.900 V 176.800 C 39.300 176.855 39.345 176.900 39.400 176.900 H 45.400 C 45.455 176.900 45.500 176.855 45.500 176.800 V 173.900 C 45.500 173.800 45.400 173.900 45.500 173.900 H 51.300 C 51.400 173.900 51.300 173.800 51.300 173.900 V 176.800 C 51.300 176.855 51.345 176.900 51.400 176.900 H 57.400 C 57.455 176.900 57.500 176.855 57.500 176.800 V 173.900 C 57.500 173.800 57.400 173.900 57.500 173.900 H 63.300 C 63.400 173.900 63.300 173.800 63.300 173.900 V 176.800 C 63.300 176.855 63.345 176.900 63.400 176.900 H 69.400 C 69.455 176.900 69.500 176.855 69.500 176.800 V 173.900 C 69.500 173.800 69.400 173.900 69.500 173.900 H 75.300 C 75.400 173.900 75.300 173.800 75.300 173.900 V 176.800 C 75.300 176.855 75.345 176.900 75.400 176.900 H 81.400 C 81.455 176.900 81.500 176.855 81.500 176.800 V 173.900 C 81.500 173.800 81.400 173.900 81.500 173.900 H 87.300 C 87.400 173.900 87.300 173.800 87.300 173.900 V 176.800 C 87.300 176.855 87.345 176.900 87.400 176.900 H 93.400 C 93.455 176.900 93.500 176.855 93.500 176.800 V 173.900 C 93.500 173.800 93.400 173.900 93.500 173.900 H 99.300 C 99.400 173.900 99.300 173.800 99.300 173.900 V 176.800 C 99.300 176.855 99.345 176.900 99.400 176.900 H 107.400 H 110.400 C 110.455 176.900 110.500 176.855 110.500 176.800 V 173.800 V 165.300 C 110.500 165.245 110.455 165.200 110.400 165.200 H 107.500 C 107.400 165.200 107.500 165.300 107.500 165.200 V 159.400 C 107.500 159.300 107.400 159.400 107.500 159.400 H 110.400 C 110.455 159.400 110.500 159.355 110.500 159.300 V 153.300 C 110.500 153.245 110.455 153.200 110.400 153.200 H 107.500 C 107.400 153.200 107.500 153.300 107.500 153.200 V 147.400 C 107.500 147.300 107.400 147.400 107.500 147.400 H 110.400 C 110.455 147.400 110.500 147.355 110.500 147.300 V 141.300 C 110.500 141.245 110.455 141.200 110.400 141.200 H 107.500 C 107.400 141.200 107.500 141.300 107.500 141.200 V 135.400 C 107.500 135.300 107.400 135.400 107.500 135.400 H 110.400 C 110.455 135.400 110.500 135.355 110.500 135.300 V 129.300 C 110.500 129.245 110.455 129.200 110.400 129.200 H 107.500 C 107.400 129.200 107.500 129.300 107.500 129.200 V 123.400 C 107.500 123.300 107.400 123.400 107.500 123.400 H 110.400 C 110.455 123.400 110.500 123.355 110.500 123.300 V 114.800 V 111.800 C 110.500 111.745 110.455 111.700 110.400 111.700 H 107.400 H 99.400 C 99.345 111.700 99.300 111.745 99.300 111.800 V 114.700 C 99.300 114.800 99.400 114.700 99.300 114.700 H 93.500 C 93.400 114.700 93.500 114.800 93.500 114.700 V 111.800 C 93.500 111.745 93.455 111.700 93.400 111.700 H 87.400 C 87.345 111.700 87.300 111.745 87.300 111.800 V 114.700 C 87.300 114.800 87.400 114.700 87.300 114.700 H 81.500 C 81.400 114.700 81.500 114.800 81.500 114.700 V 111.800 C 81.500 111.745 81.455 111.700 81.400 111.700 H 75.400 C 75.345 111.700 75.300 111.745 75.300 111.800 V 114.700 C 75.300 114.800 75.400 114.700 75.300 114.700 H 69.500 C 69.400 114.700 69.500 114.800 69.500 114.700 V 111.800 C 69.500 111.745 69.455 111.700 69.400 111.700 H 63.400 C 63.345 111.700 63.300 111.745 63.300 111.800 V 114.700 C 63.300 114.800 63.400 114.700 63.300 114.700 H 57.500 C 57.400 114.700 57.500 114.800 57.500 114.700 V 111.800 C 57.500 111.745 57.455 111.700 57.400 111.700 H 51.400 C 51.345 111.700 51.300 111.745 51.300 111.800 V 114.700 C 51.300 114.800 51.400 114.700 51.300 114.700 H 45.500 C 45.400 114.700 45.500 114.800 45.500 114.700 V 111.800 C 45.500 111.745 45.455 111.700 45.400 111.700 H 39.400 C 39.345 111.700 39.300 111.745 39.300 111.800 V 114.700 C 39.300 114.800 39.400 114.700 39.300 114.700 H 33.500 C 33.400 114.700 33.500 114.800 33.500 114.700 V 111.800 C 33.500 111.745 33.455 111.700 33.400 111.700 H 27.400 C 27.345 111.700 27.300 111.745 27.300 111.800 V 114.700 C 27.300 114.800 27.400 114.700 27.300 114.700 H 21.500 C 21.400 114.700 21.500 114.800 21.500 114.700 V 111.800 C 21.500 111.745 21.455 111.700 21.400 111.700 H 13.400 H 10.400 C 10.345 111.700 10.300 111.745 10.300 111.800 V 114.800 V 123.300 C 10.300 123.355 10.345 123.400 10.400 123.400 H 13.300 C 13.400 123.400 13.300 123.300 13.300 123.400 V 129.200 C 13.300 129.300 13.400 129.200 13.300 129.200 H 10.400 C 10.345 129.200 10.300 129.245 10.300 129.300 V 135.300 C 10.300 135.355 10.345 135.400 10.400 135.400 H 13.300 C 13.400 135.400 13.300 135.300 13.300 135.400 V 141.200 C 13.300 141.300 13.400 141.200 13.300 141.200 H 10.400 C 10.345 141.200 10.300 141.245 10.300 141.300 V 147.300 C 10.300 147.355 10.345 147.400 10.400 147.400 H 13.300 C 13.400 147.400 13.300 147.300 13.300 147.400 V 153.200 C 13.300 153.300 13.400 153.200 13.300 153.200 H 10.400 C 10.345 153.200 10.300 153.245 10.300 153.300 V 159.300 C 10.300 159.355 10.345 159.400 10.400 159.400 H 13.300 C 13.400 159.400 13.300 159.300 13.300 159.400 V 165.200 C 13.300 165.300 13.400 165.200 13.300 165.200 H 10.400 C 10.345 165.200 10.300 165.245 10.300 165.300 V 173.800 V 176.800 C 10.300 176.855 10.345 176.900 10.400 176.900 H 13.400"
       stroke="rgb(0,0,0)"
       stroke-width="0.20"
       id="path16145"
       style="fill:none;stroke:#000000;stroke-opacity:1;stroke-width:0.00000016;stroke-dasharray:none" />
  </g>
  <g
     id="p-5"
     style="fill:none;stroke-linecap:round;stroke-linejoin:round;stroke:#000000;stroke-opacity:1;stroke-width:0.00000016;stroke-dasharray:none">
    <path
       d="M 13.400 107.200 H 21.300 C 21.400 107.200 21.300 107.100 21.300 107.200 V 110.100 C 21.300 110.155 21.345 110.200 21.400 110.200 H 27.400 C 27.455 110.200 27.500 110.155 27.500 110.100 V 107.200 C 27.500 107.100 27.400 107.200 27.500 107.200 H 33.300 C 33.400 107.200 33.300 107.100 33.300 107.200 V 110.100 C 33.300 110.155 33.345 110.200 33.400 110.200 H 39.400 C 39.455 110.200 39.500 110.155 39.500 110.100 V 107.200 C 39.500 107.100 39.400 107.200 39.500 107.200 H 45.300 C 45.400 107.200 45.300 107.100 45.300 107.200 V 110.100 C 45.300 110.155 45.345 110.200 45.400 110.200 H 51.400 C 51.455 110.200 51.500 110.155 51.500 110.100 V 107.200 C 51.500 107.100 51.400 107.200 51.500 107.200 H 57.300 C 57.400 107.200 57.300 107.100 57.300 107.200 V 110.100 C 57.300 110.155 57.345 110.200 57.400 110.200 H 63.400 C 63.455 110.200 63.500 110.155 63.500 110.100 V 107.200 C 63.500 107.100 63.400 107.200 63.500 107.200 H 69.300 C 69.400 107.200 69.300 107.100 69.300 107.200 V 110.100 C 69.300 110.155 69.345 110.200 69.400 110.200 H 75.400 C 75.455 110.200 75.500 110.155 75.500 110.100 V 107.200 C 75.500 107.100 75.400 107.200 75.500 107.200 H 81.300 C 81.400 107.200 81.300 107.100 81.300 107.200 V 110.100 C 81.300 110.155 81.345 110.200 81.400 110.200 H 87.400 C 87.455 110.200 87.500 110.155 87.500 110.100 V 107.200 C 87.500 107.100 87.400 107.200 87.500 107.200 H 93.300 C 93.400 107.200 93.300 107.100 93.300 107.200 V 110.100 C 93.300 110.155 93.345 110.200 93.400 110.200 H 99.400 C 99.455 110.200 99.500 110.155 99.500 110.100 V 107.200 C 99.500 107.100 99.400 107.200 99.500 107.200 H 107.400 C 107.455 107.200 107.500 107.155 107.500 107.100 V 99.200 C 107.500 99.100 107.400 99.200 107.500 99.200 H 110.400 C 110.455 99.200 110.500 99.155 110.500 99.100 V 93.100 C 110.500 93.045 110.455 93.000 110.400 93.000 H 107.500 C 107.400 93.000 107.500 93.100 107.500 93.000 V 87.200 C 107.500 87.100 107.400 87.200 107.500 87.200 H 110.400 C 110.455 87.200 110.500 87.155 110.500 87.100 V 81.100 C 110.500 81.045 110.455 81.000 110.400 81.000 H 107.500 C 107.400 81.000 107.500 81.100 107.500 81.000 V 75.200 C 107.500 75.100 107.400 75.200 107.500 75.200 H 110.400 C 110.455 75.200 110.500 75.155 110.500 75.100 V 69.100 C 110.500 69.045 110.455 69.000 110.400 69.000 H 107.500 C 107.400 69.000 107.500 69.100 107.500 69.000 V 63.200 C 107.500 63.100 107.400 63.200 107.500 63.200 H 110.400 C 110.455 63.200 110.500 63.155 110.500 63.100 V 57.100 C 110.500 57.045 110.455 57.000 110.400 57.000 H 107.500 C 107.400 57.000 107.500 57.100 107.500 57.000 V 51.200 C 107.500 51.100 107.400 51.200 107.500 51.200 H 110.400 C 110.455 51.200 110.500 51.155 110.500 51.100 V 45.100 C 110.500 45.045 110.455 45.000 110.400 45.000 H 107.500 C 107.400 45.000 107.500 45.100 107.500 45.000 V 39.200 C 107.500 39.100 107.400 39.200 107.500 39.200 H 110.400 C 110.455 39.200 110.500 39.155 110.500 39.100 V 33.100 C 110.500 33.045 110.455 33.000 110.400 33.000 H 107.500 C 107.400 33.000 107.500 33.100 107.500 33.000 V 27.200 C 107.500 27.100 107.400 27.200 107.500 27.200 H 110.400 C 110.455 27.200 110.500 27.155 110.500 27.100 V 21.100 C 110.500 21.045 110.455 21.000 110.400 21.000 H 107.500 C 107.400 21.000 107.500 21.100 107.500 21.000 V 13.100 C 107.500 13.045 107.455 13.000 107.400 13.000 H 99.500 C 99.400 13.000 99.500 13.100 99.500 13.000 V 10.100 C 99.500 10.045 99.455 10.000 99.400 10.000 H 93.400 C 93.345 10.000 93.300 10.045 93.300 10.100 V 13.000 C 93.300 13.100 93.400 13.000 93.300 13.000 H 87.500 C 87.400 13.000 87.500 13.100 87.500 13.000 V 10.100 C 87.500 10.045 87.455 10.000 87.400 10.000 H 81.400 C 81.345 10.000 81.300 10.045 81.300 10.100 V 13.000 C 81.300 13.100 81.400 13.000 81.300 13.000 H 75.500 C 75.400 13.000 75.500 13.100 75.500 13.000 V 10.100 C 75.500 10.045 75.455 10.000 75.400 10.000 H 69.400 C 69.345 10.000 69.300 10.045 69.300 10.100 V 13.000 C 69.300 13.100 69.400 13.000 69.300 13.000 H 63.500 C 63.400 13.000 63.500 13.100 63.500 13.000 V 10.100 C 63.500 10.045 63.455 10.000 63.400 10.000 H 57.400 C 57.345 10.000 57.300 10.045 57.300 10.100 V 13.000 C 57.300 13.100 57.400 13.000 57.300 13.000 H 51.500 C 51.400 13.000 51.500 13.100 51.500 13.000 V 10.100 C 51.500 10.045 51.455 10.000 51.400 10.000 H 45.400 C 45.345 10.000 45.300 10.045 45.300 10.100 V 13.000 C 45.300 13.100 45.400 13.000 45.300 13.000 H 39.500 C 39.400 13.000 39.500 13.100 39.500 13.000 V 10.100 C 39.500 10.045 39.455 10.000 39.400 10.000 H 33.400 C 33.345 10.000 33.300 10.045 33.300 10.100 V 13.000 C 33.300 13.100 33.400 13.000 33.300 13.000 H 27.500 C 27.400 13.000 27.500 13.100 27.500 13.000 V 10.100 C 27.500 10.045 27.455 10.000 27.400 10.000 H 21.400 C 21.345 10.000 21.300 10.045 21.300 10.100 V 13.000 C 21.300 13.100 21.400 13.000 21.300 13.000 H 13.400 C 13.345 13.000 13.300 13.045 13.300 13.100 V 21.000 C 13.300 21.100 13.400 21.000 13.300 21.000 H 10.400 C 10.345 21.000 10.300 21.045 10.300 21.100 V 27.100 C 10.300 27.155 10.345 27.200 10.400 27.200 H 13.300 C 13.400 27.200 13.300 27.100 13.300 27.200 V 33.000 C 13.300 33.100 13.400 33.000 13.300 33.000 H 10.400 C 10.345 33.000 10.300 33.045 10.300 33.100 V 39.100 C 10.300 39.155 10.345 39.200 10.400 39.200 H 13.300 C 13.400 39.200 13.300 39.100 13.300 39.200 V 45.000 C 13.300 45.100 13.400 45.000 13.300 45.000 H 10.400 C 10.345 45.000 10.300 45.045 10.300 45.100 V 51.100 C 10.300 51.155 10.345 51.200 10.400 51.200 H 13.300 C 13.400 51.200 13.300 51.100 13.300 51.200 V 57.000 C 13.300 57.100 13.400 57.000 13.300 57.000 H 10.400 C 10.345 57.000 10.300 57.045 10.300 57.100 V 63.100 C 10.300 63.155 10.345 63.200 10.400 63.200 H 13.300 C 13.400 63.200 13.300 63.100 13.300 63.200 V 69.000 C 13.300 69.100 13.400 69.000 13.300 69.000 H 10.400 C 10.345 69.000 10.300 69.045 10.300 69.100 V 75.100 C 10.300 75.155 10.345 75.200 10.400 75.200 H 13.300 C 13.400 75.200 13.300 75.100 13.300 75.200 V 81.000 C 13.300 81.100 13.400 81.000 13.300 81.000 H 10.400 C 10.345 81.000 10.300 81.045 10.300 81.100 V 87.100 C 10.300 87.155 10.345 87.200 10.400 87.200 H 13.300 C 13.400 87.200 13.300 87.100 13.300 87.200 V 93.000 C 13.300 93.100 13.400 93.000 13.300 93.000 H 10.400 C 10.345 93.000 10.300 93.045 10.300 93.100 V 99.100 C 10.300 99.155 10.345 99.200 10.400 99.200 H 13.300 C 13.400 99.200 13.300 99.100 13.300 99.200 V 107.100 C 13.300 107.155 13.345 107.200 13.400 107.200"
       stroke="rgb(0,0,0)"
       stroke-width="0.20"
       id="path16150"
       style="fill:none;stroke:#000000;stroke-opacity:1;stroke-width:0.00000016;stroke-dasharray:none" />
  </g>
  <g
     id="p-6"
     style="fill:none;stroke-linecap:round;stroke-linejoin:round;stroke:#000000;stroke-opacity:1;stroke-width:0.00000016;stroke-dasharray:none">
    <path
       d="M 115.100 107.200 H 123.000 C 123.100 107.200 123.000 107.100 123.000 107.200 V 110.100 C 123.000 110.155 123.045 110.200 123.100 110.200 H 129.100 C 129.155 110.200 129.200 110.155 129.200 110.100 V 107.200 C 129.200 107.100 129.100 107.200 129.200 107.200 H 135.000 C 135.100 107.200 135.000 107.100 135.000 107.200 V 110.100 C 135.000 110.155 135.045 110.200 135.100 110.200 H 141.100 C 141.155 110.200 141.200 110.155 141.200 110.100 V 107.200 C 141.200 107.100 141.100 107.200 141.200 107.200 H 147.000 C 147.100 107.200 147.000 107.100 147.000 107.200 V 110.100 C 147.000 110.155 147.045 110.200 147.100 110.200 H 153.100 C 153.155 110.200 153.200 110.155 153.200 110.100 V 107.200 C 153.200 107.100 153.100 107.200 153.200 107.200 H 159.000 C 159.100 107.200 159.000 107.100 159.000 107.200 V 110.100 C 159.000 110.155 159.045 110.200 159.100 110.200 H 165.100 C 165.155 110.200 165.200 110.155 165.200 110.100 V 107.200 C 165.200 107.100 165.100 107.200 165.200 107.200 H 171.000 C 171.100 107.200 171.000 107.100 171.000 107.200 V 110.100 C 171.000 110.155 171.045 110.200 171.100 110.200 H 177.100 C 177.155 110.200 177.200 110.155 177.200 110.100 V 107.200 C 177.200 107.100 177.100 107.200 177.200 107.200 H 183.000 C 183.100 107.200 183.000 107.100 183.000 107.200 V 110.100 C 183.000 110.155 183.045 110.200 183.100 110.200 H 189.100 C 189.155 110.200 189.200 110.155 189.200 110.100 V 107.200 C 189.200 107.100 189.100 107.200 189.200 107.200 H 195.000 C 195.100 107.200 195.000 107.100 195.000 107.200 V 110.100 C 195.000 110.155 195.045 110.200 195.100 110.200 H 201.100 C 201.155 110.200 201.200 110.155 201.200 110.100 V 107.200 C 201.200 107.100 201.100 107.200 201.200 107.200 H 209.100 C 209.155 107.200 209.200 107.155 209.200 107.100 V 99.200 C 209.200 99.100 209.100 99.200 209.200 99.200 H 212.100 C 212.155 99.200 212.200 99.155 212.200 99.100 V 93.100 C 212.200 93.045 212.155 93.000 212.100 93.000 H 209.200 C 209.100 93.000 209.200 93.100 209.200 93.000 V 87.200 C 209.200 87.100 209.100 87.200 209.200 87.200 H 212.100 C 212.155 87.200 212.200 87.155 212.200 87.100 V 81.100 C 212.200 81.045 212.155 81.000 212.100 81.000 H 209.200 C 209.100 81.000 209.200 81.100 209.200 81.000 V 75.200 C 209.200 75.100 209.100 75.200 209.200 75.200 H 212.100 C 212.155 75.200 212.200 75.155 212.200 75.100 V 69.100 C 212.200 69.045 212.155 69.000 212.100 69.000 H 209.200 C 209.100 69.000 209.200 69.100 209.200 69.000 V 63.200 C 209.200 63.100 209.100 63.200 209.200 63.200 H 212.100 C 212.155 63.200 212.200 63.155 212.200 63.100 V 57.100 C 212.200 57.045 212.155 57.000 212.100 57.000 H 209.200 C 209.100 57.000 209.200 57.100 209.200 57.000 V 51.200 C 209.200 51.100 209.100 51.200 209.200 51.200 H 212.100 C 212.155 51.200 212.200 51.155 212.200 51.100 V 45.100 C 212.200 45.045 212.155 45.000 212.100 45.000 H 209.200 C 209.100 45.000 209.200 45.100 209.200 45.000 V 39.200 C 209.200 39.100 209.100 39.200 209.200 39.200 H 212.100 C 212.155 39.200 212.200 39.155 212.200 39.100 V 33.100 C 212.200 33.045 212.155 33.000 212.100 33.000 H 209.200 C 209.100 33.000 209.200 33.100 209.200 33.000 V 27.200 C 209.200 27.100 209.100 27.200 209.200 27.200 H 212.100 C 212.155 27.200 212.200 27.155 212.200 27.100 V 21.100 C 212.200 21.045 212.155 21.000 212.100 21.000 H 209.200 C 209.100 21.000 209.200 21.100 209.200 21.000 V 13.100 C 209.200 13.045 209.155 13.000 209.100 13.000 H 201.200 C 201.100 13.000 201.200 13.100 201.200 13.000 V 10.100 C 201.200 10.045 201.155 10.000 201.100 10.000 H 195.100 C 195.045 10.000 195.000 10.045 195.000 10.100 V 13.000 C 195.000 13.100 195.100 13.000 195.000 13.000 H 189.200 C 189.100 13.000 189.200 13.100 189.200 13.000 V 10.100 C 189.200 10.045 189.155 10.000 189.100 10.000 H 183.100 C 183.045 10.000 183.000 10.045 183.000 10.100 V 13.000 C 183.000 13.100 183.100 13.000 183.000 13.000 H 177.200 C 177.100 13.000 177.200 13.100 177.200 13.000 V 10.100 C 177.200 10.045 177.155 10.000 177.100 10.000 H 171.100 C 171.045 10.000 171.000 10.045 171.000 10.100 V 13.000 C 171.000 13.100 171.100 13.000 171.000 13.000 H 165.200 C 165.100 13.000 165.200 13.100 165.200 13.000 V 10.100 C 165.200 10.045 165.155 10.000 165.100 10.000 H 159.100 C 159.045 10.000 159.000 10.045 159.000 10.100 V 13.000 C 159.000 13.100 159.100 13.000 159.000 13.000 H 153.200 C 153.100 13.000 153.200 13.100 153.200 13.000 V 10.100 C 153.200 10.045 153.155 10.000 153.100 10.000 H 147.100 C 147.045 10.000 147.000 10.045 147.000 10.100 V 13.000 C 147.000 13.100 147.100 13.000 147.000 13.000 H 141.200 C 141.100 13.000 141.200 13.100 141.200 13.000 V 10.100 C 141.200 10.045 141.155 10.000 141.100 10.000 H 135.100 C 135.045 10.000 135.000 10.045 135.000 10.100 V 13.000 C 135.000 13.100 135.100 13.000 135.000 13.000 H 129.200 C 129.100 13.000 129.200 13.100 129.200 13.000 V 10.100 C 129.200 10.045 129.155 10.000 129.100 10.000 H 123.100 C 123.045 10.000 123.000 10.045 123.000 10.100 V 13.000 C 123.000 13.100 123.100 13.000 123.000 13.000 H 115.100 C 115.045 13.000 115.000 13.045 115.000 13.100 V 21.000 C 115.000 21.100 115.100 21.000 115.000 21.000 H 112.100 C 112.045 21.000 112.000 21.045 112.000 21.100 V 27.100 C 112.000 27.155 112.045 27.200 112.100 27.200 H 115.000 C 115.100 27.200 115.000 27.100 115.000 27.200 V 33.000 C 115.000 33.100 115.100 33.000 115.000 33.000 H 112.100 C 112.045 33.000 112.000 33.045 112.000 33.100 V 39.100 C 112.000 39.155 112.045 39.200 112.100 39.200 H 115.000 C 115.100 39.200 115.000 39.100 115.000 39.200 V 45.000 C 115.000 45.100 115.100 45.000 115.000 45.000 H 112.100 C 112.045 45.000 112.000 45.045 112.000 45.100 V 51.100 C 112.000 51.155 112.045 51.200 112.100 51.200 H 115.000 C 115.100 51.200 115.000 51.100 115.000 51.200 V 57.000 C 115.000 57.100 115.100 57.000 115.000 57.000 H 112.100 C 112.045 57.000 112.000 57.045 112.000 57.100 V 63.100 C 112.000 63.155 112.045 63.200 112.100 63.200 H 115.000 C 115.100 63.200 115.000 63.100 115.000 63.200 V 69.000 C 115.000 69.100 115.100 69.000 115.000 69.000 H 112.100 C 112.045 69.000 112.000 69.045 112.000 69.100 V 75.100 C 112.000 75.155 112.045 75.200 112.100 75.200 H 115.000 C 115.100 75.200 115.000 75.100 115.000 75.200 V 81.000 C 115.000 81.100 115.100 81.000 115.000 81.000 H 112.100 C 112.045 81.000 112.000 81.045 112.000 81.100 V 87.100 C 112.000 87.155 112.045 87.200 112.100 87.200 H 115.000 C 115.100 87.200 115.000 87.100 115.000 87.200 V 93.000 C 115.000 93.100 115.100 93.000 115.000 93.000 H 112.100 C 112.045 93.000 112.000 93.045 112.000 93.100 V 99.100 C 112.000 99.155 112.045 99.200 112.100 99.200 H 115.000 C 115.100 99.200 115.000 99.100 115.000 99.200 V 107.100 C 115.000 107.155 115.045 107.200 115.100 107.200"
       stroke="rgb(0,0,0)"
       stroke-width="0.20"
       id="path16155"
       style="fill:none;stroke:#000000;stroke-opacity:1;stroke-width:0.00000016;stroke-dasharray:none" />
  </g>
  <path
     id="path16281"
     style="stroke:#000000;stroke-width:0;fill:none;stroke-opacity:1;stroke-dasharray:none"
     d="m 64.211937,23.466567 a 5,5 0 0 1 -5,5 5,5 0 0 1 -5,-5 5,5 0 0 1 5,-5 5,5 0 0 1 5,5 z" />
  <rect
     style="fill:none;stroke:#000000;stroke-width:0;stroke-dasharray:none;stroke-opacity:1"
     id="rect16285"
     width="14"
     height="2"
     x="52.245483"
     y="208.99295" />
</svg>
